<?xml version="1.0" encoding="UTF-8"?>
<svg xmlns="http://www.w3.org/2000/svg" xmlns:xlink="http://www.w3.org/1999/xlink" width="658" height="486" viewBox="0 0 658 486">
<defs>
<g>
<g id="glyph-0-0">
<path d="M 3.625 -2.46875 L 3.625 -3.210938 L 6.296875 -3.214844 L 6.296875 -0.875 C 5.886719 -0.550781 5.460938 -0.304688 5.027344 -0.140625 C 4.59375 0.0234375 4.144531 0.109375 3.6875 0.109375 C 3.066406 0.109375 2.503906 -0.0234375 2 -0.289062 C 1.496094 -0.554688 1.113281 -0.9375 0.855469 -1.441406 C 0.597656 -1.941406 0.46875 -2.5 0.46875 -3.121094 C 0.46875 -3.734375 0.597656 -4.304688 0.851562 -4.835938 C 1.109375 -5.367188 1.476562 -5.761719 1.960938 -6.019531 C 2.441406 -6.277344 2.996094 -6.40625 3.621094 -6.40625 C 4.078125 -6.40625 4.488281 -6.332031 4.859375 -6.183594 C 5.226562 -6.039062 5.515625 -5.832031 5.722656 -5.570312 C 5.933594 -5.304688 6.089844 -4.960938 6.199219 -4.539062 L 5.449219 -4.332031 C 5.355469 -4.652344 5.238281 -4.902344 5.097656 -5.085938 C 4.957031 -5.269531 4.753906 -5.417969 4.496094 -5.527344 C 4.234375 -5.636719 3.945312 -5.695312 3.625 -5.695312 C 3.246094 -5.695312 2.917969 -5.636719 2.636719 -5.519531 C 2.359375 -5.402344 2.136719 -5.25 1.964844 -5.0625 C 1.796875 -4.871094 1.664062 -4.664062 1.570312 -4.4375 C 1.40625 -4.050781 1.328125 -3.625 1.328125 -3.171875 C 1.328125 -2.609375 1.425781 -2.140625 1.617188 -1.761719 C 1.8125 -1.382812 2.09375 -1.101562 2.460938 -0.917969 C 2.832031 -0.734375 3.222656 -0.644531 3.640625 -0.644531 C 4 -0.644531 4.351562 -0.714844 4.695312 -0.851562 C 5.039062 -0.992188 5.300781 -1.140625 5.476562 -1.296875 L 5.476562 -2.46875 Z M 3.625 -2.46875 "/>
</g>
<g id="glyph-0-1">
<path d="M 0.679688 0 L 0.679688 -6.300781 L 2.847656 -6.300781 C 3.339844 -6.300781 3.710938 -6.269531 3.96875 -6.210938 C 4.332031 -6.125 4.640625 -5.976562 4.894531 -5.757812 C 5.226562 -5.476562 5.476562 -5.117188 5.640625 -4.679688 C 5.804688 -4.246094 5.886719 -3.746094 5.886719 -3.183594 C 5.886719 -2.707031 5.832031 -2.28125 5.71875 -1.914062 C 5.609375 -1.542969 5.464844 -1.238281 5.289062 -0.996094 C 5.113281 -0.753906 4.921875 -0.5625 4.714844 -0.421875 C 4.507812 -0.285156 4.257812 -0.179688 3.964844 -0.109375 C 3.671875 -0.0351562 3.332031 0 2.953125 0 L 0.679688 0 M 1.511719 -0.742188 L 2.859375 -0.742188 C 3.273438 -0.742188 3.597656 -0.78125 3.835938 -0.859375 C 4.070312 -0.9375 4.257812 -1.046875 4.398438 -1.1875 C 4.597656 -1.382812 4.75 -1.648438 4.863281 -1.984375 C 4.972656 -2.316406 5.027344 -2.722656 5.027344 -3.195312 C 5.027344 -3.855469 4.917969 -4.363281 4.703125 -4.714844 C 4.488281 -5.070312 4.222656 -5.304688 3.914062 -5.425781 C 3.691406 -5.511719 3.332031 -5.554688 2.835938 -5.554688 L 1.511719 -5.554688 Z M 1.511719 -0.742188 "/>
</g>
<g id="glyph-0-2">
<path d="M 5.453125 -0.675781 C 5.839844 -0.410156 6.195312 -0.214844 6.523438 -0.0898438 L 6.277344 0.488281 C 5.824219 0.328125 5.375 0.0703125 4.925781 -0.285156 C 4.457031 -0.0234375 3.941406 0.109375 3.378906 0.109375 C 2.808594 0.109375 2.289062 -0.03125 1.828125 -0.304688 C 1.363281 -0.578125 1.003906 -0.96875 0.753906 -1.464844 C 0.503906 -1.964844 0.378906 -2.523438 0.378906 -3.148438 C 0.378906 -3.769531 0.503906 -4.335938 0.757812 -4.847656 C 1.007812 -5.355469 1.367188 -5.746094 1.832031 -6.011719 C 2.296875 -6.277344 2.820312 -6.410156 3.394531 -6.410156 C 3.976562 -6.410156 4.5 -6.273438 4.96875 -5.996094 C 5.433594 -5.71875 5.789062 -5.332031 6.035156 -4.835938 C 6.28125 -4.339844 6.402344 -3.777344 6.402344 -3.152344 C 6.402344 -2.636719 6.324219 -2.167969 6.167969 -1.753906 C 6.007812 -1.339844 5.769531 -0.980469 5.453125 -0.675781 M 3.617188 -1.742188 C 4.097656 -1.605469 4.496094 -1.40625 4.808594 -1.140625 C 5.296875 -1.585938 5.542969 -2.257812 5.542969 -3.152344 C 5.542969 -3.664062 5.457031 -4.109375 5.28125 -4.492188 C 5.109375 -4.871094 4.855469 -5.167969 4.523438 -5.378906 C 4.1875 -5.589844 3.8125 -5.695312 3.398438 -5.695312 C 2.777344 -5.695312 2.261719 -5.480469 1.851562 -5.054688 C 1.441406 -4.628906 1.238281 -3.996094 1.238281 -3.148438 C 1.238281 -2.332031 1.441406 -1.703125 1.84375 -1.261719 C 2.25 -0.824219 2.769531 -0.605469 3.398438 -0.605469 C 3.695312 -0.605469 3.976562 -0.660156 4.242188 -0.773438 C 3.980469 -0.941406 3.707031 -1.0625 3.417969 -1.132812 Z M 3.617188 -1.742188 "/>
</g>
<g id="glyph-0-3">
<path d="M 2.480469 0 L 0.0390625 -6.300781 L 0.941406 -6.300781 L 2.578125 -1.722656 C 2.710938 -1.355469 2.820312 -1.011719 2.910156 -0.691406 C 3.007812 -1.035156 3.121094 -1.378906 3.25 -1.722656 L 4.949219 -6.300781 L 5.800781 -6.300781 L 3.335938 0 Z M 2.480469 0 "/>
</g>
<g id="glyph-0-4">
<path d="M 4.429688 -0.742188 L 4.429688 0 L 0.265625 0 C 0.261719 -0.1875 0.289062 -0.367188 0.355469 -0.539062 C 0.460938 -0.820312 0.632812 -1.101562 0.867188 -1.375 C 1.097656 -1.648438 1.4375 -1.96875 1.878906 -2.328125 C 2.5625 -2.890625 3.023438 -3.335938 3.265625 -3.664062 C 3.507812 -3.992188 3.625 -4.300781 3.625 -4.59375 C 3.625 -4.898438 3.515625 -5.160156 3.296875 -5.367188 C 3.078125 -5.578125 2.792969 -5.683594 2.441406 -5.683594 C 2.066406 -5.683594 1.769531 -5.574219 1.546875 -5.351562 C 1.324219 -5.125 1.210938 -4.816406 1.207031 -4.421875 L 0.414062 -4.503906 C 0.46875 -5.097656 0.671875 -5.546875 1.027344 -5.859375 C 1.382812 -6.167969 1.859375 -6.324219 2.457031 -6.324219 C 3.0625 -6.324219 3.539062 -6.15625 3.894531 -5.824219 C 4.246094 -5.488281 4.421875 -5.070312 4.421875 -4.578125 C 4.421875 -4.324219 4.371094 -4.078125 4.265625 -3.832031 C 4.164062 -3.589844 3.992188 -3.332031 3.753906 -3.0625 C 3.515625 -2.792969 3.117188 -2.425781 2.5625 -1.957031 C 2.097656 -1.566406 1.800781 -1.300781 1.667969 -1.164062 C 1.535156 -1.023438 1.425781 -0.882812 1.339844 -0.742188 Z M 4.429688 -0.742188 "/>
</g>
<g id="glyph-0-5">
<path d="M 0.652344 0 L 0.652344 -6.300781 L 1.90625 -6.300781 L 3.398438 -1.839844 C 3.535156 -1.421875 3.636719 -1.113281 3.699219 -0.90625 C 3.769531 -1.136719 3.882812 -1.472656 4.035156 -1.917969 L 5.542969 -6.300781 L 6.664062 -6.300781 L 6.664062 0 L 5.859375 0 L 5.859375 -5.273438 L 4.03125 0 L 3.277344 0 L 1.457031 -5.363281 L 1.457031 0 Z M 0.652344 0 "/>
</g>
<g id="glyph-0-6">
<path d="M 2.28125 0 L 2.28125 -5.554688 L 0.207031 -5.554688 L 0.207031 -6.300781 L 5.199219 -6.300781 L 5.199219 -5.554688 L 3.117188 -5.554688 L 3.117188 0 Z M 2.28125 0 "/>
</g>
<g id="glyph-0-7">
<path d="M -0.132812 1.75 L -0.132812 1.191406 L 4.992188 1.191406 L 4.992188 1.75 Z M -0.132812 1.75 "/>
</g>
<g id="glyph-0-8">
<path d="M -0.0117188 0 L 2.40625 -6.300781 L 3.304688 -6.300781 L 5.882812 0 L 4.933594 0 L 4.199219 -1.90625 L 1.5625 -1.90625 L 0.871094 0 L -0.0117188 0 M 1.804688 -2.585938 L 3.941406 -2.585938 L 3.28125 -4.332031 C 3.082031 -4.859375 2.933594 -5.296875 2.835938 -5.636719 C 2.753906 -5.234375 2.640625 -4.832031 2.496094 -4.433594 Z M 1.804688 -2.585938 "/>
</g>
<g id="glyph-0-9">
<path d="M 0.0390625 0 L 2.476562 -3.28125 L 0.328125 -6.300781 L 1.320312 -6.300781 L 2.460938 -4.683594 C 2.699219 -4.347656 2.867188 -4.089844 2.96875 -3.910156 C 3.109375 -4.140625 3.277344 -4.378906 3.46875 -4.628906 L 4.734375 -6.300781 L 5.640625 -6.300781 L 3.429688 -3.332031 L 5.8125 0 L 4.78125 0 L 3.195312 -2.246094 C 3.109375 -2.375 3.015625 -2.515625 2.921875 -2.667969 C 2.78125 -2.4375 2.679688 -2.28125 2.621094 -2.195312 L 1.039062 0 Z M 0.0390625 0 "/>
</g>
<g id="glyph-0-10">
<path d="M 0.394531 -2.023438 L 1.179688 -2.09375 C 1.21875 -1.777344 1.304688 -1.519531 1.441406 -1.316406 C 1.578125 -1.113281 1.789062 -0.953125 2.074219 -0.828125 C 2.363281 -0.703125 2.683594 -0.640625 3.042969 -0.640625 C 3.359375 -0.640625 3.640625 -0.6875 3.882812 -0.78125 C 4.128906 -0.875 4.308594 -1.007812 4.429688 -1.171875 C 4.546875 -1.335938 4.605469 -1.515625 4.605469 -1.710938 C 4.605469 -1.90625 4.550781 -2.082031 4.433594 -2.226562 C 4.320312 -2.375 4.128906 -2.5 3.867188 -2.601562 C 3.699219 -2.664062 3.324219 -2.769531 2.746094 -2.90625 C 2.167969 -3.046875 1.761719 -3.175781 1.53125 -3.300781 C 1.230469 -3.457031 1.003906 -3.652344 0.855469 -3.886719 C 0.710938 -4.121094 0.636719 -4.382812 0.636719 -4.671875 C 0.636719 -4.988281 0.726562 -5.285156 0.90625 -5.5625 C 1.085938 -5.839844 1.351562 -6.046875 1.699219 -6.191406 C 2.042969 -6.335938 2.429688 -6.40625 2.851562 -6.40625 C 3.320312 -6.40625 3.730469 -6.332031 4.089844 -6.179688 C 4.445312 -6.03125 4.71875 -5.808594 4.910156 -5.515625 C 5.101562 -5.226562 5.207031 -4.894531 5.21875 -4.523438 L 4.421875 -4.464844 C 4.378906 -4.863281 4.234375 -5.164062 3.984375 -5.367188 C 3.738281 -5.570312 3.371094 -5.671875 2.886719 -5.671875 C 2.382812 -5.671875 2.015625 -5.578125 1.785156 -5.394531 C 1.554688 -5.210938 1.441406 -4.988281 1.441406 -4.726562 C 1.441406 -4.5 1.519531 -4.3125 1.683594 -4.167969 C 1.84375 -4.023438 2.265625 -3.871094 2.941406 -3.71875 C 3.617188 -3.566406 4.082031 -3.433594 4.335938 -3.316406 C 4.703125 -3.148438 4.972656 -2.933594 5.148438 -2.675781 C 5.324219 -2.414062 5.410156 -2.117188 5.410156 -1.777344 C 5.410156 -1.445312 5.3125 -1.128906 5.121094 -0.832031 C 4.929688 -0.535156 4.652344 -0.304688 4.292969 -0.140625 C 3.933594 0.0234375 3.53125 0.109375 3.082031 0.109375 C 2.511719 0.109375 2.03125 0.0234375 1.648438 -0.140625 C 1.261719 -0.308594 0.960938 -0.558594 0.742188 -0.890625 C 0.523438 -1.226562 0.40625 -1.601562 0.394531 -2.023438 Z M 0.394531 -2.023438 "/>
</g>
<g id="glyph-0-11">
<path d="M 0.679688 0 L 0.679688 -6.300781 L 3.054688 -6.300781 C 3.472656 -6.300781 3.792969 -6.277344 4.011719 -6.238281 C 4.324219 -6.1875 4.582031 -6.089844 4.789062 -5.945312 C 5 -5.800781 5.167969 -5.597656 5.296875 -5.335938 C 5.421875 -5.074219 5.488281 -4.789062 5.488281 -4.476562 C 5.488281 -3.941406 5.316406 -3.488281 4.976562 -3.117188 C 4.636719 -2.746094 4.019531 -2.5625 3.128906 -2.5625 L 1.511719 -2.5625 L 1.511719 0 L 0.679688 0 M 1.511719 -3.304688 L 3.140625 -3.304688 C 3.679688 -3.304688 4.0625 -3.40625 4.289062 -3.605469 C 4.515625 -3.804688 4.628906 -4.085938 4.628906 -4.453125 C 4.628906 -4.714844 4.5625 -4.941406 4.429688 -5.128906 C 4.292969 -5.316406 4.121094 -5.441406 3.902344 -5.5 C 3.761719 -5.539062 3.503906 -5.554688 3.125 -5.554688 L 1.511719 -5.554688 Z M 1.511719 -3.304688 "/>
</g>
<g id="glyph-0-12">
<path d="M 0.671875 0 L 0.671875 -6.300781 L 1.527344 -6.300781 L 4.835938 -1.351562 L 4.835938 -6.300781 L 5.632812 -6.300781 L 5.632812 0 L 4.777344 0 L 1.46875 -4.949219 L 1.46875 0 Z M 0.671875 0 "/>
</g>
<g id="glyph-0-13">
<path d="M 0.695312 0 L 0.695312 -6.300781 L 5.25 -6.300781 L 5.25 -5.554688 L 1.53125 -5.554688 L 1.53125 -3.625 L 5.015625 -3.625 L 5.015625 -2.886719 L 1.53125 -2.886719 L 1.53125 -0.742188 L 5.398438 -0.742188 L 5.398438 0 Z M 0.695312 0 "/>
</g>
<g id="glyph-0-14">
<path d="M 0.722656 0 L 0.722656 -6.300781 L 4.972656 -6.300781 L 4.972656 -5.554688 L 1.554688 -5.554688 L 1.554688 -3.605469 L 4.511719 -3.605469 L 4.511719 -2.863281 L 1.554688 -2.863281 L 1.554688 0 Z M 0.722656 0 "/>
</g>
<g id="glyph-0-15">
<path d="M 0.691406 0 L 0.691406 -6.300781 L 3.484375 -6.300781 C 4.046875 -6.300781 4.472656 -6.242188 4.765625 -6.128906 C 5.058594 -6.015625 5.289062 -5.816406 5.464844 -5.53125 C 5.640625 -5.242188 5.726562 -4.925781 5.726562 -4.582031 C 5.726562 -4.132812 5.582031 -3.757812 5.292969 -3.449219 C 5.003906 -3.144531 4.558594 -2.949219 3.953125 -2.867188 C 4.171875 -2.761719 4.339844 -2.65625 4.457031 -2.550781 C 4.699219 -2.328125 4.929688 -2.050781 5.148438 -1.714844 L 6.242188 0 L 5.195312 0 L 4.359375 -1.3125 C 4.117188 -1.6875 3.917969 -1.976562 3.761719 -2.179688 C 3.601562 -2.378906 3.460938 -2.519531 3.335938 -2.601562 C 3.210938 -2.679688 3.085938 -2.734375 2.957031 -2.765625 C 2.863281 -2.789062 2.707031 -2.796875 2.492188 -2.796875 L 1.527344 -2.796875 L 1.527344 0 L 0.691406 0 M 1.527344 -3.519531 L 3.316406 -3.519531 C 3.699219 -3.519531 3.996094 -3.558594 4.210938 -3.636719 C 4.425781 -3.714844 4.589844 -3.84375 4.699219 -4.015625 C 4.8125 -4.1875 4.867188 -4.378906 4.867188 -4.582031 C 4.867188 -4.878906 4.761719 -5.125 4.542969 -5.316406 C 4.328125 -5.507812 3.984375 -5.601562 3.519531 -5.601562 L 1.527344 -5.601562 Z M 1.527344 -3.519531 "/>
</g>
<g id="glyph-0-16">
<path d="M 4.8125 -6.300781 L 5.644531 -6.300781 L 5.644531 -2.660156 C 5.644531 -2.027344 5.574219 -1.523438 5.429688 -1.152344 C 5.289062 -0.777344 5.03125 -0.476562 4.65625 -0.242188 C 4.28125 -0.0078125 3.792969 0.109375 3.183594 0.109375 C 2.59375 0.109375 2.109375 0.00390625 1.734375 -0.199219 C 1.359375 -0.402344 1.09375 -0.695312 0.933594 -1.082031 C 0.773438 -1.464844 0.691406 -1.992188 0.691406 -2.660156 L 0.691406 -6.300781 L 1.527344 -6.300781 L 1.527344 -2.664062 C 1.527344 -2.117188 1.578125 -1.714844 1.679688 -1.453125 C 1.78125 -1.195312 1.953125 -0.996094 2.203125 -0.855469 C 2.449219 -0.714844 2.753906 -0.644531 3.109375 -0.644531 C 3.722656 -0.644531 4.160156 -0.785156 4.421875 -1.0625 C 4.683594 -1.339844 4.8125 -1.875 4.8125 -2.664062 Z M 4.8125 -6.300781 "/>
</g>
<g id="glyph-0-17">
<path d="M 0.703125 0 L 0.703125 -6.300781 L 1.539062 -6.300781 L 1.539062 -3.710938 L 4.8125 -3.710938 L 4.8125 -6.300781 L 5.644531 -6.300781 L 5.644531 0 L 4.8125 0 L 4.8125 -2.96875 L 1.539062 -2.96875 L 1.539062 0 Z M 0.703125 0 "/>
</g>
<g id="glyph-0-18">
<path d="M 3.277344 0 L 2.503906 0 L 2.503906 -4.929688 C 2.320312 -4.75 2.074219 -4.574219 1.773438 -4.394531 C 1.46875 -4.21875 1.199219 -4.085938 0.957031 -3.996094 L 0.957031 -4.742188 C 1.390625 -4.945312 1.769531 -5.195312 2.09375 -5.484375 C 2.417969 -5.773438 2.644531 -6.054688 2.78125 -6.324219 L 3.277344 -6.324219 Z M 3.277344 0 "/>
</g>
<g id="glyph-0-19">
<path d="M 1.777344 0 L 0.109375 -6.300781 L 0.960938 -6.300781 L 1.921875 -2.171875 C 2.023438 -1.738281 2.113281 -1.308594 2.1875 -0.882812 C 2.347656 -1.554688 2.441406 -1.941406 2.46875 -2.046875 L 3.667969 -6.300781 L 4.675781 -6.300781 L 5.578125 -3.109375 C 5.804688 -2.320312 5.96875 -1.578125 6.066406 -0.882812 C 6.148438 -1.277344 6.253906 -1.734375 6.382812 -2.25 L 7.371094 -6.300781 L 8.207031 -6.300781 L 6.480469 0 L 5.675781 0 L 4.347656 -4.800781 C 4.238281 -5.199219 4.171875 -5.445312 4.152344 -5.539062 C 4.085938 -5.25 4.023438 -5.003906 3.964844 -4.800781 L 2.628906 0 Z M 1.777344 0 "/>
</g>
<g id="glyph-0-20">
<path d="M 0.820312 0 L 0.820312 -6.300781 L 1.65625 -6.300781 L 1.65625 0 Z M 0.820312 0 "/>
</g>
<g id="glyph-0-21">
<path d="M 0.644531 0 L 0.644531 -6.300781 L 1.476562 -6.300781 L 1.476562 -0.742188 L 4.582031 -0.742188 L 4.582031 0 Z M 0.644531 0 "/>
</g>
<g id="glyph-0-22">
<path d="M 0.644531 0 L 0.644531 -6.300781 L 1.476562 -6.300781 L 1.476562 -3.175781 L 4.605469 -6.300781 L 5.738281 -6.300781 L 3.09375 -3.746094 L 5.851562 0 L 4.753906 0 L 2.507812 -3.1875 L 1.476562 -2.183594 L 1.476562 0 Z M 0.644531 0 "/>
</g>
<g id="glyph-0-23">
<path d="M 2.453125 0 L 2.453125 -2.667969 L 0.0273438 -6.300781 L 1.039062 -6.300781 L 2.28125 -4.398438 C 2.511719 -4.042969 2.722656 -3.691406 2.921875 -3.335938 C 3.109375 -3.664062 3.339844 -4.035156 3.609375 -4.445312 L 4.828125 -6.300781 L 5.800781 -6.300781 L 3.289062 -2.667969 L 3.289062 0 Z M 2.453125 0 "/>
</g>
<g id="glyph-0-24">
<path d="M 5.171875 -2.207031 L 6.007812 -2 C 5.832031 -1.3125 5.519531 -0.792969 5.0625 -0.433594 C 4.609375 -0.0742188 4.054688 0.109375 3.398438 0.109375 C 2.71875 0.109375 2.167969 -0.03125 1.742188 -0.308594 C 1.316406 -0.582031 0.992188 -0.984375 0.769531 -1.507812 C 0.550781 -2.03125 0.4375 -2.59375 0.4375 -3.195312 C 0.4375 -3.851562 0.5625 -4.425781 0.8125 -4.914062 C 1.066406 -5.402344 1.421875 -5.773438 1.882812 -6.027344 C 2.347656 -6.28125 2.855469 -6.40625 3.410156 -6.40625 C 4.042969 -6.40625 4.570312 -6.246094 5 -5.925781 C 5.429688 -5.605469 5.730469 -5.152344 5.898438 -4.570312 L 5.078125 -4.378906 C 4.933594 -4.835938 4.722656 -5.171875 4.441406 -5.378906 C 4.164062 -5.589844 3.816406 -5.695312 3.394531 -5.695312 C 2.910156 -5.695312 2.503906 -5.578125 2.179688 -5.34375 C 1.855469 -5.113281 1.628906 -4.800781 1.496094 -4.410156 C 1.363281 -4.019531 1.296875 -3.617188 1.296875 -3.203125 C 1.296875 -2.664062 1.375 -2.199219 1.53125 -1.796875 C 1.6875 -1.398438 1.929688 -1.101562 2.261719 -0.902344 C 2.589844 -0.703125 2.945312 -0.605469 3.332031 -0.605469 C 3.796875 -0.605469 4.191406 -0.742188 4.515625 -1.007812 C 4.839844 -1.277344 5.058594 -1.679688 5.171875 -2.207031 Z M 5.171875 -2.207031 "/>
</g>
<g id="glyph-0-25">
<path d="M 0.644531 0 L 0.644531 -6.300781 L 3.007812 -6.300781 C 3.488281 -6.300781 3.875 -6.234375 4.164062 -6.109375 C 4.457031 -5.980469 4.683594 -5.785156 4.847656 -5.519531 C 5.015625 -5.253906 5.097656 -4.976562 5.097656 -4.6875 C 5.097656 -4.417969 5.023438 -4.164062 4.875 -3.925781 C 4.730469 -3.691406 4.511719 -3.496094 4.214844 -3.351562 C 4.597656 -3.238281 4.890625 -3.050781 5.09375 -2.78125 C 5.296875 -2.511719 5.402344 -2.191406 5.402344 -1.828125 C 5.402344 -1.53125 5.339844 -1.257812 5.214844 -1.003906 C 5.089844 -0.75 4.9375 -0.554688 4.753906 -0.417969 C 4.570312 -0.28125 4.339844 -0.175781 4.0625 -0.105469 C 3.785156 -0.0351562 3.449219 0 3.046875 0 L 0.644531 0 M 1.476562 -3.652344 L 2.839844 -3.652344 C 3.210938 -3.652344 3.476562 -3.675781 3.636719 -3.726562 C 3.847656 -3.789062 4.007812 -3.894531 4.113281 -4.039062 C 4.222656 -4.183594 4.273438 -4.367188 4.273438 -4.589844 C 4.273438 -4.796875 4.226562 -4.980469 4.125 -5.140625 C 4.023438 -5.300781 3.882812 -5.410156 3.695312 -5.46875 C 3.507812 -5.527344 3.191406 -5.554688 2.738281 -5.554688 L 1.476562 -5.554688 L 1.476562 -3.652344 M 1.476562 -0.742188 L 3.046875 -0.742188 C 3.316406 -0.742188 3.503906 -0.753906 3.613281 -0.773438 C 3.804688 -0.808594 3.964844 -0.863281 4.09375 -0.945312 C 4.222656 -1.027344 4.328125 -1.140625 4.414062 -1.296875 C 4.496094 -1.449219 4.539062 -1.625 4.539062 -1.828125 C 4.539062 -2.0625 4.476562 -2.265625 4.355469 -2.4375 C 4.238281 -2.613281 4.070312 -2.734375 3.855469 -2.804688 C 3.644531 -2.875 3.335938 -2.910156 2.933594 -2.910156 L 1.476562 -2.910156 Z M 1.476562 -0.742188 "/>
</g>
<g id="glyph-0-26">
<path d="M 0.425781 -3.066406 C 0.425781 -4.113281 0.707031 -4.933594 1.265625 -5.523438 C 1.828125 -6.113281 2.554688 -6.410156 3.441406 -6.410156 C 4.023438 -6.410156 4.546875 -6.273438 5.015625 -5.996094 C 5.480469 -5.714844 5.835938 -5.328125 6.082031 -4.832031 C 6.328125 -4.335938 6.449219 -3.769531 6.449219 -3.140625 C 6.449219 -2.503906 6.320312 -1.929688 6.0625 -1.425781 C 5.804688 -0.921875 5.441406 -0.539062 4.96875 -0.28125 C 4.496094 -0.0234375 3.984375 0.109375 3.4375 0.109375 C 2.84375 0.109375 2.316406 -0.0351562 1.847656 -0.320312 C 1.378906 -0.609375 1.027344 -1 0.785156 -1.496094 C 0.546875 -1.992188 0.425781 -2.515625 0.425781 -3.066406 M 1.285156 -3.054688 C 1.285156 -2.296875 1.488281 -1.699219 1.898438 -1.261719 C 2.304688 -0.824219 2.816406 -0.605469 3.433594 -0.605469 C 4.0625 -0.605469 4.578125 -0.828125 4.980469 -1.265625 C 5.386719 -1.707031 5.589844 -2.335938 5.589844 -3.144531 C 5.589844 -3.65625 5.503906 -4.105469 5.332031 -4.488281 C 5.15625 -4.871094 4.902344 -5.167969 4.570312 -5.378906 C 4.234375 -5.589844 3.863281 -5.695312 3.445312 -5.695312 C 2.855469 -5.695312 2.347656 -5.492188 1.921875 -5.085938 C 1.496094 -4.679688 1.285156 -4.003906 1.285156 -3.054688 Z M 1.285156 -3.054688 "/>
</g>
<g id="glyph-0-27">
<path d="M 0.578125 0 L 0.578125 -4.5625 L 1.277344 -4.5625 L 1.277344 -3.914062 C 1.609375 -4.414062 2.09375 -4.667969 2.726562 -4.667969 C 3.003906 -4.667969 3.257812 -4.617188 3.488281 -4.519531 C 3.71875 -4.417969 3.890625 -4.289062 4.003906 -4.128906 C 4.121094 -3.96875 4.199219 -3.777344 4.246094 -3.558594 C 4.273438 -3.414062 4.289062 -3.164062 4.289062 -2.804688 L 4.289062 0 L 3.515625 0 L 3.515625 -2.777344 C 3.515625 -3.089844 3.484375 -3.328125 3.425781 -3.484375 C 3.363281 -3.640625 3.257812 -3.761719 3.105469 -3.855469 C 2.953125 -3.949219 2.773438 -3.996094 2.566406 -3.996094 C 2.234375 -3.996094 1.953125 -3.890625 1.710938 -3.683594 C 1.472656 -3.472656 1.351562 -3.078125 1.351562 -2.492188 L 1.351562 0 Z M 0.578125 0 "/>
</g>
<g id="glyph-0-28">
<path d="M 0.367188 -3.105469 C 0.367188 -3.851562 0.441406 -4.449219 0.59375 -4.90625 C 0.75 -5.359375 0.976562 -5.710938 1.277344 -5.957031 C 1.582031 -6.203125 1.960938 -6.324219 2.417969 -6.324219 C 2.757812 -6.324219 3.054688 -6.257812 3.308594 -6.121094 C 3.5625 -5.984375 3.773438 -5.789062 3.941406 -5.53125 C 4.105469 -5.277344 4.238281 -4.964844 4.332031 -4.59375 C 4.425781 -4.226562 4.472656 -3.730469 4.472656 -3.105469 C 4.472656 -2.367188 4.398438 -1.769531 4.246094 -1.316406 C 4.09375 -0.863281 3.867188 -0.511719 3.5625 -0.265625 C 3.261719 -0.015625 2.878906 0.109375 2.417969 0.109375 C 1.8125 0.109375 1.335938 -0.109375 0.988281 -0.546875 C 0.574219 -1.070312 0.367188 -1.921875 0.367188 -3.105469 M 1.160156 -3.105469 C 1.160156 -2.074219 1.28125 -1.382812 1.523438 -1.042969 C 1.765625 -0.699219 2.0625 -0.527344 2.417969 -0.527344 C 2.773438 -0.527344 3.074219 -0.699219 3.316406 -1.042969 C 3.558594 -1.386719 3.679688 -2.074219 3.679688 -3.105469 C 3.679688 -4.144531 3.558594 -4.832031 3.316406 -5.171875 C 3.074219 -5.515625 2.773438 -5.683594 2.410156 -5.683594 C 2.054688 -5.683594 1.773438 -5.535156 1.558594 -5.234375 C 1.292969 -4.851562 1.160156 -4.140625 1.160156 -3.105469 Z M 1.160156 -3.105469 "/>
</g>
<g id="glyph-0-29">
<path d="M 0.800781 0 L 0.800781 -0.882812 L 1.679688 -0.882812 L 1.679688 0 Z M 0.800781 0 "/>
</g>
<g id="glyph-0-30">
<path d="M 0.371094 -1.664062 L 1.144531 -1.765625 C 1.230469 -1.328125 1.382812 -1.011719 1.597656 -0.820312 C 1.808594 -0.625 2.070312 -0.527344 2.375 -0.527344 C 2.738281 -0.527344 3.046875 -0.65625 3.296875 -0.90625 C 3.546875 -1.160156 3.671875 -1.472656 3.675781 -1.84375 C 3.671875 -2.199219 3.558594 -2.492188 3.324219 -2.722656 C 3.09375 -2.953125 2.796875 -3.066406 2.441406 -3.066406 C 2.292969 -3.066406 2.113281 -3.039062 1.894531 -2.980469 L 1.980469 -3.660156 C 2.03125 -3.65625 2.074219 -3.652344 2.105469 -3.652344 C 2.433594 -3.652344 2.730469 -3.738281 2.996094 -3.910156 C 3.257812 -4.082031 3.390625 -4.347656 3.390625 -4.703125 C 3.390625 -4.988281 3.292969 -5.222656 3.101562 -5.410156 C 2.910156 -5.597656 2.664062 -5.6875 2.359375 -5.6875 C 2.058594 -5.6875 1.808594 -5.59375 1.605469 -5.40625 C 1.40625 -5.214844 1.277344 -4.933594 1.21875 -4.554688 L 0.445312 -4.691406 C 0.542969 -5.210938 0.757812 -5.613281 1.089844 -5.898438 C 1.425781 -6.183594 1.84375 -6.324219 2.34375 -6.324219 C 2.6875 -6.324219 3.003906 -6.25 3.292969 -6.105469 C 3.582031 -5.957031 3.800781 -5.753906 3.957031 -5.5 C 4.109375 -5.246094 4.183594 -4.972656 4.183594 -4.6875 C 4.183594 -4.414062 4.113281 -4.167969 3.964844 -3.945312 C 3.820312 -3.722656 3.605469 -3.542969 3.316406 -3.410156 C 3.691406 -3.324219 3.980469 -3.148438 4.183594 -2.875 C 4.390625 -2.605469 4.496094 -2.265625 4.496094 -1.859375 C 4.496094 -1.3125 4.292969 -0.84375 3.894531 -0.460938 C 3.492188 -0.078125 2.984375 0.113281 2.371094 0.113281 C 1.820312 0.113281 1.359375 -0.0546875 0.996094 -0.382812 C 0.628906 -0.710938 0.421875 -1.140625 0.371094 -1.664062 Z M 0.371094 -1.664062 "/>
</g>
<g id="glyph-1-0">
<path d="M 3.097656 0 L 0.046875 -7.875 L 1.175781 -7.875 L 3.222656 -2.152344 C 3.386719 -1.695312 3.523438 -1.265625 3.636719 -0.863281 C 3.757812 -1.292969 3.898438 -1.722656 4.0625 -2.152344 L 6.1875 -7.875 L 7.25 -7.875 L 4.167969 0 Z M 3.097656 0 "/>
</g>
<g id="glyph-1-1">
<path d="M 1.027344 0 L 1.027344 -7.875 L 2.066406 -7.875 L 2.066406 0 Z M 1.027344 0 "/>
</g>
<g id="glyph-1-2">
<path d="M 0.847656 0 L 0.847656 -7.875 L 3.820312 -7.875 C 4.339844 -7.875 4.742188 -7.847656 5.015625 -7.796875 C 5.402344 -7.734375 5.726562 -7.613281 5.988281 -7.429688 C 6.25 -7.25 6.460938 -6.996094 6.621094 -6.671875 C 6.777344 -6.34375 6.859375 -5.988281 6.859375 -5.597656 C 6.859375 -4.925781 6.644531 -4.359375 6.21875 -3.898438 C 5.792969 -3.433594 5.023438 -3.203125 3.910156 -3.203125 L 1.890625 -3.203125 L 1.890625 0 L 0.847656 0 M 1.890625 -4.128906 L 3.925781 -4.128906 C 4.597656 -4.128906 5.078125 -4.253906 5.359375 -4.507812 C 5.644531 -4.757812 5.785156 -5.109375 5.785156 -5.5625 C 5.785156 -5.894531 5.703125 -6.175781 5.535156 -6.410156 C 5.367188 -6.644531 5.148438 -6.800781 4.875 -6.875 C 4.703125 -6.921875 4.378906 -6.945312 3.90625 -6.945312 L 1.890625 -6.945312 Z M 1.890625 -4.128906 "/>
</g>
<g id="glyph-1-3">
</g>
<g id="glyph-1-4">
<path d="M 0.492188 -2.53125 L 1.476562 -2.617188 C 1.523438 -2.222656 1.632812 -1.898438 1.800781 -1.644531 C 1.972656 -1.394531 2.234375 -1.191406 2.59375 -1.035156 C 2.953125 -0.878906 3.355469 -0.800781 3.804688 -0.800781 C 4.199219 -0.800781 4.550781 -0.859375 4.855469 -0.976562 C 5.160156 -1.09375 5.386719 -1.257812 5.535156 -1.464844 C 5.683594 -1.667969 5.757812 -1.894531 5.757812 -2.136719 C 5.757812 -2.382812 5.6875 -2.601562 5.542969 -2.785156 C 5.398438 -2.96875 5.164062 -3.125 4.835938 -3.25 C 4.621094 -3.332031 4.15625 -3.460938 3.433594 -3.632812 C 2.707031 -3.808594 2.203125 -3.972656 1.914062 -4.125 C 1.535156 -4.320312 1.257812 -4.566406 1.070312 -4.859375 C 0.886719 -5.148438 0.796875 -5.476562 0.796875 -5.839844 C 0.796875 -6.234375 0.90625 -6.605469 1.132812 -6.953125 C 1.359375 -7.296875 1.6875 -7.5625 2.121094 -7.738281 C 2.554688 -7.917969 3.035156 -8.007812 3.566406 -8.007812 C 4.148438 -8.007812 4.664062 -7.914062 5.109375 -7.726562 C 5.554688 -7.539062 5.898438 -7.261719 6.140625 -6.898438 C 6.378906 -6.53125 6.507812 -6.117188 6.527344 -5.65625 L 5.527344 -5.582031 C 5.472656 -6.078125 5.292969 -6.453125 4.980469 -6.707031 C 4.671875 -6.960938 4.214844 -7.089844 3.609375 -7.089844 C 2.980469 -7.089844 2.519531 -6.972656 2.230469 -6.742188 C 1.945312 -6.511719 1.800781 -6.234375 1.800781 -5.90625 C 1.800781 -5.625 1.902344 -5.390625 2.105469 -5.210938 C 2.304688 -5.027344 2.828125 -4.839844 3.675781 -4.648438 C 4.523438 -4.457031 5.105469 -4.289062 5.417969 -4.148438 C 5.878906 -3.933594 6.214844 -3.667969 6.433594 -3.34375 C 6.652344 -3.019531 6.761719 -2.644531 6.761719 -2.222656 C 6.761719 -1.804688 6.640625 -1.410156 6.402344 -1.039062 C 6.164062 -0.667969 5.816406 -0.378906 5.367188 -0.175781 C 4.917969 0.03125 4.414062 0.132812 3.851562 0.132812 C 3.136719 0.132812 2.542969 0.03125 2.058594 -0.175781 C 1.578125 -0.386719 1.199219 -0.699219 0.925781 -1.113281 C 0.652344 -1.53125 0.507812 -2.003906 0.492188 -2.53125 Z M 0.492188 -2.53125 "/>
</g>
<g id="glyph-1-5">
<path d="M 4.445312 -2.089844 L 5.398438 -1.964844 C 5.292969 -1.3125 5.027344 -0.796875 4.601562 -0.425781 C 4.171875 -0.0546875 3.648438 0.128906 3.023438 0.128906 C 2.242188 0.128906 1.617188 -0.125 1.140625 -0.636719 C 0.667969 -1.148438 0.429688 -1.878906 0.429688 -2.832031 C 0.429688 -3.445312 0.53125 -3.984375 0.734375 -4.445312 C 0.941406 -4.910156 1.25 -5.253906 1.667969 -5.488281 C 2.085938 -5.71875 2.539062 -5.832031 3.03125 -5.832031 C 3.648438 -5.832031 4.15625 -5.675781 4.550781 -5.363281 C 4.941406 -5.050781 5.195312 -4.605469 5.304688 -4.027344 L 4.367188 -3.882812 C 4.277344 -4.265625 4.117188 -4.554688 3.890625 -4.75 C 3.664062 -4.941406 3.390625 -5.039062 3.066406 -5.039062 C 2.578125 -5.039062 2.183594 -4.863281 1.878906 -4.515625 C 1.574219 -4.164062 1.421875 -3.613281 1.421875 -2.859375 C 1.421875 -2.089844 1.570312 -1.535156 1.863281 -1.1875 C 2.15625 -0.839844 2.539062 -0.664062 3.011719 -0.664062 C 3.394531 -0.664062 3.710938 -0.78125 3.964844 -1.015625 C 4.21875 -1.246094 4.378906 -1.605469 4.445312 -2.089844 Z M 4.445312 -2.089844 "/>
</g>
<g id="glyph-1-6">
<path d="M 0.367188 -2.851562 C 0.367188 -3.910156 0.660156 -4.691406 1.246094 -5.199219 C 1.738281 -5.621094 2.335938 -5.832031 3.039062 -5.832031 C 3.824219 -5.832031 4.464844 -5.574219 4.960938 -5.0625 C 5.460938 -4.546875 5.710938 -3.839844 5.710938 -2.933594 C 5.710938 -2.199219 5.597656 -1.621094 5.378906 -1.199219 C 5.160156 -0.78125 4.839844 -0.453125 4.417969 -0.21875 C 3.996094 0.0117188 3.539062 0.128906 3.039062 0.128906 C 2.242188 0.128906 1.597656 -0.128906 1.105469 -0.640625 C 0.613281 -1.152344 0.367188 -1.890625 0.367188 -2.851562 M 1.359375 -2.851562 C 1.359375 -2.121094 1.519531 -1.574219 1.835938 -1.210938 C 2.15625 -0.847656 2.554688 -0.664062 3.039062 -0.664062 C 3.519531 -0.664062 3.917969 -0.847656 4.238281 -1.214844 C 4.554688 -1.578125 4.714844 -2.136719 4.714844 -2.882812 C 4.714844 -3.589844 4.554688 -4.125 4.234375 -4.488281 C 3.914062 -4.851562 3.515625 -5.03125 3.039062 -5.03125 C 2.554688 -5.03125 2.15625 -4.851562 1.835938 -4.492188 C 1.519531 -4.128906 1.359375 -3.582031 1.359375 -2.851562 Z M 1.359375 -2.851562 "/>
</g>
<g id="glyph-1-7">
<path d="M 0.714844 0 L 0.714844 -5.703125 L 1.585938 -5.703125 L 1.585938 -4.839844 C 1.804688 -5.242188 2.011719 -5.511719 2.199219 -5.640625 C 2.386719 -5.769531 2.59375 -5.832031 2.820312 -5.832031 C 3.144531 -5.832031 3.476562 -5.730469 3.8125 -5.523438 L 3.480469 -4.625 C 3.242188 -4.765625 3.007812 -4.832031 2.773438 -4.835938 C 2.558594 -4.832031 2.371094 -4.769531 2.203125 -4.644531 C 2.035156 -4.515625 1.914062 -4.339844 1.84375 -4.113281 C 1.734375 -3.769531 1.679688 -3.394531 1.679688 -2.984375 L 1.679688 0 Z M 0.714844 0 "/>
</g>
<g id="glyph-1-8">
<path d="M 4.628906 -1.835938 L 5.628906 -1.714844 C 5.472656 -1.128906 5.179688 -0.675781 4.753906 -0.355469 C 4.328125 -0.03125 3.78125 0.128906 3.121094 0.128906 C 2.285156 0.128906 1.625 -0.128906 1.136719 -0.640625 C 0.648438 -1.15625 0.402344 -1.875 0.402344 -2.804688 C 0.402344 -3.761719 0.648438 -4.507812 1.144531 -5.039062 C 1.636719 -5.566406 2.277344 -5.832031 3.066406 -5.832031 C 3.828125 -5.832031 4.453125 -5.574219 4.9375 -5.054688 C 5.417969 -4.535156 5.660156 -3.804688 5.660156 -2.863281 C 5.660156 -2.804688 5.660156 -2.71875 5.65625 -2.605469 L 1.402344 -2.605469 C 1.4375 -1.976562 1.613281 -1.5 1.933594 -1.164062 C 2.253906 -0.832031 2.648438 -0.664062 3.125 -0.664062 C 3.480469 -0.664062 3.78125 -0.757812 4.035156 -0.945312 C 4.285156 -1.132812 4.484375 -1.429688 4.628906 -1.835938 M 1.457031 -3.398438 L 4.640625 -3.398438 C 4.597656 -3.878906 4.476562 -4.238281 4.273438 -4.480469 C 3.96875 -4.851562 3.566406 -5.039062 3.078125 -5.039062 C 2.632812 -5.039062 2.261719 -4.890625 1.957031 -4.59375 C 1.65625 -4.296875 1.488281 -3.898438 1.457031 -3.398438 Z M 1.457031 -3.398438 "/>
</g>
<g id="glyph-2-0">
<path d="M 1.019531 0 L 1.019531 -9.449219 L 4.582031 -9.449219 C 5.210938 -9.449219 5.6875 -9.417969 6.019531 -9.359375 C 6.484375 -9.28125 6.871094 -9.132812 7.1875 -8.917969 C 7.5 -8.699219 7.753906 -8.394531 7.945312 -8.003906 C 8.136719 -7.613281 8.230469 -7.183594 8.230469 -6.714844 C 8.230469 -5.914062 7.976562 -5.234375 7.464844 -4.675781 C 6.953125 -4.121094 6.027344 -3.839844 4.691406 -3.839844 L 2.269531 -3.839844 L 2.269531 0 L 1.019531 0 M 2.269531 -4.957031 L 4.710938 -4.957031 C 5.519531 -4.957031 6.09375 -5.105469 6.433594 -5.40625 C 6.773438 -5.707031 6.941406 -6.132812 6.941406 -6.675781 C 6.941406 -7.074219 6.839844 -7.410156 6.640625 -7.691406 C 6.441406 -7.972656 6.179688 -8.160156 5.851562 -8.25 C 5.640625 -8.304688 5.253906 -8.332031 4.6875 -8.332031 L 2.269531 -8.332031 Z M 2.269531 -4.957031 "/>
</g>
<g id="glyph-2-1">
<path d="M 0.96875 0 L 0.96875 -9.449219 L 2.21875 -9.449219 L 2.21875 -1.113281 L 6.871094 -1.113281 L 6.871094 0 Z M 0.96875 0 "/>
</g>
<g id="glyph-2-2">
<path d="M 0.59375 -3.035156 L 1.773438 -3.140625 C 1.828125 -2.667969 1.957031 -2.277344 2.164062 -1.976562 C 2.367188 -1.671875 2.683594 -1.425781 3.113281 -1.242188 C 3.542969 -1.054688 4.027344 -0.960938 4.5625 -0.960938 C 5.039062 -0.960938 5.460938 -1.03125 5.828125 -1.171875 C 6.191406 -1.316406 6.464844 -1.507812 6.640625 -1.757812 C 6.820312 -2.003906 6.910156 -2.273438 6.910156 -2.566406 C 6.910156 -2.863281 6.824219 -3.121094 6.652344 -3.34375 C 6.480469 -3.5625 6.195312 -3.75 5.800781 -3.898438 C 5.546875 -4 4.988281 -4.152344 4.117188 -4.359375 C 3.25 -4.570312 2.640625 -4.765625 2.292969 -4.949219 C 1.84375 -5.1875 1.507812 -5.480469 1.285156 -5.828125 C 1.066406 -6.179688 0.953125 -6.570312 0.953125 -7.007812 C 0.953125 -7.484375 1.089844 -7.929688 1.359375 -8.34375 C 1.628906 -8.757812 2.027344 -9.074219 2.546875 -9.289062 C 3.066406 -9.503906 3.644531 -9.609375 4.28125 -9.609375 C 4.980469 -9.609375 5.597656 -9.496094 6.132812 -9.273438 C 6.667969 -9.046875 7.078125 -8.714844 7.367188 -8.277344 C 7.65625 -7.835938 7.808594 -7.339844 7.832031 -6.785156 L 6.632812 -6.695312 C 6.566406 -7.292969 6.351562 -7.746094 5.976562 -8.050781 C 5.605469 -8.355469 5.058594 -8.507812 4.332031 -8.507812 C 3.574219 -8.507812 3.023438 -8.371094 2.679688 -8.09375 C 2.332031 -7.816406 2.160156 -7.480469 2.160156 -7.089844 C 2.160156 -6.75 2.28125 -6.472656 2.527344 -6.25 C 2.765625 -6.03125 3.394531 -5.808594 4.410156 -5.578125 C 5.429688 -5.347656 6.125 -5.148438 6.503906 -4.976562 C 7.054688 -4.722656 7.460938 -4.402344 7.722656 -4.011719 C 7.984375 -3.625 8.113281 -3.175781 8.113281 -2.667969 C 8.113281 -2.164062 7.96875 -1.691406 7.683594 -1.246094 C 7.394531 -0.800781 6.980469 -0.457031 6.441406 -0.210938 C 5.902344 0.0390625 5.296875 0.160156 4.621094 0.160156 C 3.765625 0.160156 3.050781 0.0351562 2.472656 -0.210938 C 1.894531 -0.460938 1.441406 -0.835938 1.113281 -1.335938 C 0.78125 -1.839844 0.609375 -2.402344 0.59375 -3.035156 Z M 0.59375 -3.035156 "/>
</g>
<g id="glyph-2-3">
</g>
<g id="glyph-2-4">
<path d="M 3.71875 0 L 0.0585938 -9.449219 L 1.410156 -9.449219 L 3.867188 -2.585938 C 4.066406 -2.035156 4.230469 -1.519531 4.363281 -1.039062 C 4.507812 -1.554688 4.679688 -2.070312 4.871094 -2.585938 L 7.425781 -9.449219 L 8.703125 -9.449219 L 5 0 Z M 3.71875 0 "/>
</g>
<g id="glyph-2-5">
<path d="M 5.335938 -0.84375 C 4.90625 -0.480469 4.492188 -0.222656 4.097656 -0.0703125 C 3.699219 0.078125 3.273438 0.15625 2.816406 0.15625 C 2.066406 0.15625 1.488281 -0.0273438 1.082031 -0.394531 C 0.679688 -0.765625 0.476562 -1.234375 0.476562 -1.804688 C 0.476562 -2.140625 0.554688 -2.445312 0.707031 -2.722656 C 0.859375 -3 1.058594 -3.222656 1.304688 -3.390625 C 1.550781 -3.558594 1.832031 -3.683594 2.140625 -3.769531 C 2.367188 -3.832031 2.710938 -3.886719 3.171875 -3.945312 C 4.109375 -4.054688 4.796875 -4.1875 5.238281 -4.34375 C 5.246094 -4.503906 5.246094 -4.605469 5.246094 -4.648438 C 5.246094 -5.121094 5.136719 -5.453125 4.917969 -5.644531 C 4.621094 -5.90625 4.179688 -6.039062 3.597656 -6.039062 C 3.050781 -6.039062 2.648438 -5.945312 2.386719 -5.753906 C 2.128906 -5.5625 1.9375 -5.222656 1.8125 -4.738281 L 0.675781 -4.890625 C 0.78125 -5.378906 0.949219 -5.769531 1.1875 -6.066406 C 1.421875 -6.367188 1.765625 -6.597656 2.210938 -6.757812 C 2.65625 -6.917969 3.175781 -7 3.765625 -7 C 4.347656 -7 4.824219 -6.929688 5.1875 -6.792969 C 5.554688 -6.65625 5.820312 -6.484375 5.992188 -6.273438 C 6.164062 -6.066406 6.285156 -5.804688 6.355469 -5.484375 C 6.394531 -5.289062 6.414062 -4.929688 6.414062 -4.414062 L 6.414062 -2.867188 C 6.414062 -1.789062 6.4375 -1.109375 6.488281 -0.820312 C 6.535156 -0.535156 6.632812 -0.261719 6.78125 0 L 5.570312 0 C 5.449219 -0.242188 5.371094 -0.523438 5.335938 -0.84375 M 5.238281 -3.433594 C 4.820312 -3.261719 4.1875 -3.117188 3.34375 -2.996094 C 2.867188 -2.929688 2.53125 -2.851562 2.332031 -2.765625 C 2.136719 -2.679688 1.984375 -2.554688 1.875 -2.386719 C 1.769531 -2.222656 1.714844 -2.039062 1.714844 -1.835938 C 1.714844 -1.527344 1.832031 -1.269531 2.066406 -1.0625 C 2.300781 -0.855469 2.640625 -0.753906 3.09375 -0.753906 C 3.539062 -0.753906 3.9375 -0.851562 4.285156 -1.046875 C 4.632812 -1.242188 4.890625 -1.511719 5.054688 -1.851562 C 5.175781 -2.113281 5.238281 -2.5 5.238281 -3.011719 Z M 5.238281 -3.433594 "/>
</g>
<g id="glyph-2-6">
<path d="M 0.855469 0 L 0.855469 -6.84375 L 1.902344 -6.84375 L 1.902344 -5.808594 C 2.167969 -6.292969 2.414062 -6.613281 2.640625 -6.765625 C 2.863281 -6.921875 3.113281 -7 3.382812 -7 C 3.773438 -7 4.171875 -6.875 4.578125 -6.625 L 4.175781 -5.550781 C 3.894531 -5.71875 3.609375 -5.800781 3.324219 -5.800781 C 3.070312 -5.800781 2.84375 -5.722656 2.640625 -5.570312 C 2.441406 -5.417969 2.296875 -5.207031 2.210938 -4.9375 C 2.082031 -4.523438 2.015625 -4.074219 2.015625 -3.582031 L 2.015625 0 Z M 0.855469 0 "/>
</g>
<g id="glyph-2-7">
<path d="M 0.875 -8.113281 L 0.875 -9.449219 L 2.035156 -9.449219 L 2.035156 -8.113281 L 0.875 -8.113281 M 0.875 0 L 0.875 -6.84375 L 2.035156 -6.84375 L 2.035156 0 Z M 0.875 0 "/>
</g>
<g id="glyph-2-8">
<path d="M 1.941406 0 L 0.863281 0 L 0.863281 -9.449219 L 2.023438 -9.449219 L 2.023438 -6.078125 C 2.515625 -6.691406 3.140625 -7 3.898438 -7 C 4.320312 -7 4.71875 -6.914062 5.09375 -6.746094 C 5.472656 -6.574219 5.78125 -6.335938 6.023438 -6.03125 C 6.265625 -5.722656 6.457031 -5.351562 6.59375 -4.917969 C 6.730469 -4.484375 6.800781 -4.019531 6.800781 -3.527344 C 6.800781 -2.351562 6.507812 -1.445312 5.929688 -0.804688 C 5.351562 -0.164062 4.652344 0.15625 3.839844 0.15625 C 3.035156 0.15625 2.398438 -0.183594 1.941406 -0.855469 L 1.941406 0 M 1.925781 -3.472656 C 1.925781 -2.652344 2.039062 -2.058594 2.261719 -1.695312 C 2.628906 -1.097656 3.121094 -0.800781 3.746094 -0.800781 C 4.25 -0.800781 4.691406 -1.019531 5.058594 -1.460938 C 5.429688 -1.898438 5.613281 -2.554688 5.613281 -3.429688 C 5.613281 -4.324219 5.4375 -4.980469 5.082031 -5.40625 C 4.726562 -5.832031 4.300781 -6.046875 3.796875 -6.046875 C 3.289062 -6.046875 2.851562 -5.824219 2.480469 -5.386719 C 2.113281 -4.945312 1.925781 -4.308594 1.925781 -3.472656 Z M 1.925781 -3.472656 "/>
</g>
<g id="glyph-2-9">
<path d="M 0.84375 0 L 0.84375 -9.449219 L 2.003906 -9.449219 L 2.003906 0 Z M 0.84375 0 "/>
</g>
<g id="glyph-2-10">
<path d="M 5.554688 -2.203125 L 6.753906 -2.054688 C 6.566406 -1.355469 6.214844 -0.8125 5.703125 -0.425781 C 5.191406 -0.0390625 4.539062 0.15625 3.746094 0.15625 C 2.742188 0.15625 1.949219 -0.152344 1.363281 -0.769531 C 0.777344 -1.386719 0.484375 -2.25 0.484375 -3.363281 C 0.484375 -4.515625 0.78125 -5.410156 1.371094 -6.046875 C 1.964844 -6.679688 2.734375 -7 3.679688 -7 C 4.59375 -7 5.34375 -6.6875 5.921875 -6.066406 C 6.503906 -5.441406 6.792969 -4.566406 6.792969 -3.433594 C 6.792969 -3.367188 6.792969 -3.261719 6.785156 -3.125 L 1.683594 -3.125 C 1.726562 -2.375 1.9375 -1.796875 2.320312 -1.398438 C 2.703125 -1 3.179688 -0.800781 3.75 -0.800781 C 4.175781 -0.800781 4.539062 -0.910156 4.839844 -1.132812 C 5.140625 -1.359375 5.378906 -1.714844 5.554688 -2.203125 M 1.746094 -4.078125 L 5.570312 -4.078125 C 5.515625 -4.65625 5.371094 -5.085938 5.128906 -5.375 C 4.761719 -5.820312 4.28125 -6.046875 3.691406 -6.046875 C 3.160156 -6.046875 2.710938 -5.867188 2.347656 -5.511719 C 1.984375 -5.152344 1.785156 -4.675781 1.746094 -4.078125 Z M 1.746094 -4.078125 "/>
</g>
<g id="glyph-2-11">
<path d="M 1.230469 0 L 1.230469 -9.449219 L 2.480469 -9.449219 L 2.480469 0 Z M 1.230469 0 "/>
</g>
<g id="glyph-2-12">
<path d="M 0.871094 0 L 0.871094 -6.84375 L 1.90625 -6.84375 L 1.90625 -5.882812 C 2.121094 -6.21875 2.410156 -6.488281 2.765625 -6.695312 C 3.121094 -6.898438 3.527344 -7 3.984375 -7 C 4.488281 -7 4.90625 -6.894531 5.230469 -6.683594 C 5.554688 -6.472656 5.785156 -6.179688 5.917969 -5.800781 C 6.457031 -6.601562 7.164062 -7 8.03125 -7 C 8.710938 -7 9.230469 -6.8125 9.597656 -6.4375 C 9.960938 -6.058594 10.144531 -5.480469 10.144531 -4.699219 L 10.144531 0 L 8.992188 0 L 8.992188 -4.3125 C 8.992188 -4.777344 8.953125 -5.109375 8.878906 -5.3125 C 8.804688 -5.519531 8.667969 -5.683594 8.46875 -5.808594 C 8.269531 -5.933594 8.039062 -5.992188 7.773438 -5.992188 C 7.292969 -5.992188 6.890625 -5.835938 6.574219 -5.515625 C 6.257812 -5.195312 6.097656 -4.679688 6.097656 -3.976562 L 6.097656 0 L 4.9375 0 L 4.9375 -4.445312 C 4.9375 -4.960938 4.84375 -5.347656 4.652344 -5.609375 C 4.464844 -5.863281 4.15625 -5.992188 3.726562 -5.992188 C 3.398438 -5.992188 3.097656 -5.90625 2.820312 -5.734375 C 2.542969 -5.5625 2.339844 -5.3125 2.21875 -4.980469 C 2.09375 -4.652344 2.03125 -4.175781 2.03125 -3.550781 L 2.03125 0 Z M 0.871094 0 "/>
</g>
<g id="glyph-2-13">
<path d="M 0.871094 2.625 L 0.871094 -6.84375 L 1.925781 -6.84375 L 1.925781 -5.957031 C 2.175781 -6.304688 2.457031 -6.566406 2.773438 -6.738281 C 3.085938 -6.914062 3.464844 -7 3.914062 -7 C 4.496094 -7 5.011719 -6.847656 5.460938 -6.546875 C 5.90625 -6.246094 6.242188 -5.824219 6.472656 -5.277344 C 6.699219 -4.726562 6.8125 -4.128906 6.8125 -3.472656 C 6.8125 -2.773438 6.6875 -2.144531 6.4375 -1.582031 C 6.183594 -1.023438 5.820312 -0.59375 5.339844 -0.292969 C 4.859375 0.00390625 4.355469 0.15625 3.828125 0.15625 C 3.441406 0.15625 3.09375 0.0742188 2.789062 -0.0898438 C 2.480469 -0.253906 2.226562 -0.460938 2.03125 -0.710938 L 2.03125 2.625 L 0.871094 2.625 M 1.921875 -3.382812 C 1.921875 -2.503906 2.097656 -1.851562 2.457031 -1.429688 C 2.8125 -1.007812 3.242188 -0.800781 3.75 -0.800781 C 4.265625 -0.800781 4.707031 -1.015625 5.074219 -1.453125 C 5.441406 -1.890625 5.625 -2.566406 5.625 -3.480469 C 5.625 -4.351562 5.449219 -5.003906 5.089844 -5.441406 C 4.730469 -5.875 4.300781 -6.089844 3.804688 -6.089844 C 3.308594 -6.089844 2.871094 -5.859375 2.492188 -5.398438 C 2.109375 -4.9375 1.921875 -4.265625 1.921875 -3.382812 Z M 1.921875 -3.382812 "/>
</g>
<g id="glyph-2-14">
<path d="M 0.4375 -3.421875 C 0.4375 -4.691406 0.789062 -5.628906 1.496094 -6.238281 C 2.082031 -6.746094 2.800781 -7 3.648438 -7 C 4.589844 -7 5.359375 -6.691406 5.957031 -6.074219 C 6.550781 -5.457031 6.851562 -4.605469 6.851562 -3.519531 C 6.851562 -2.636719 6.71875 -1.945312 6.453125 -1.441406 C 6.191406 -0.9375 5.804688 -0.542969 5.300781 -0.265625 C 4.796875 0.015625 4.246094 0.15625 3.648438 0.15625 C 2.691406 0.15625 1.914062 -0.152344 1.324219 -0.765625 C 0.734375 -1.382812 0.4375 -2.265625 0.4375 -3.421875 M 1.628906 -3.421875 C 1.628906 -2.546875 1.820312 -1.890625 2.203125 -1.453125 C 2.585938 -1.015625 3.066406 -0.800781 3.648438 -0.800781 C 4.222656 -0.800781 4.703125 -1.019531 5.085938 -1.457031 C 5.46875 -1.894531 5.660156 -2.5625 5.660156 -3.460938 C 5.660156 -4.308594 5.464844 -4.949219 5.082031 -5.386719 C 4.699219 -5.820312 4.21875 -6.039062 3.648438 -6.039062 C 3.066406 -6.039062 2.585938 -5.820312 2.203125 -5.386719 C 1.820312 -4.953125 1.628906 -4.300781 1.628906 -3.421875 Z M 1.628906 -3.421875 "/>
</g>
<g id="glyph-2-15">
<path d="M 3.402344 -1.039062 L 3.570312 -0.0117188 C 3.242188 0.0546875 2.953125 0.0898438 2.695312 0.0898438 C 2.273438 0.0898438 1.945312 0.0234375 1.714844 -0.109375 C 1.484375 -0.242188 1.320312 -0.417969 1.226562 -0.636719 C 1.128906 -0.851562 1.082031 -1.308594 1.082031 -2.003906 L 1.082031 -5.941406 L 0.230469 -5.941406 L 0.230469 -6.84375 L 1.082031 -6.84375 L 1.082031 -8.539062 L 2.238281 -9.234375 L 2.238281 -6.84375 L 3.402344 -6.84375 L 3.402344 -5.941406 L 2.238281 -5.941406 L 2.238281 -1.941406 C 2.238281 -1.609375 2.257812 -1.394531 2.296875 -1.300781 C 2.339844 -1.207031 2.40625 -1.132812 2.496094 -1.078125 C 2.589844 -1.019531 2.722656 -0.992188 2.894531 -0.992188 C 3.023438 -0.992188 3.191406 -1.007812 3.402344 -1.039062 Z M 3.402344 -1.039062 "/>
</g>
<g id="glyph-2-16">
<path d="M 0.871094 0 L 0.871094 -6.84375 L 1.914062 -6.84375 L 1.914062 -5.871094 C 2.417969 -6.625 3.144531 -7 4.09375 -7 C 4.503906 -7 4.882812 -6.925781 5.230469 -6.777344 C 5.578125 -6.628906 5.835938 -6.433594 6.007812 -6.195312 C 6.179688 -5.953125 6.300781 -5.667969 6.367188 -5.335938 C 6.410156 -5.121094 6.433594 -4.746094 6.433594 -4.207031 L 6.433594 0 L 5.273438 0 L 5.273438 -4.164062 C 5.273438 -4.636719 5.226562 -4.988281 5.136719 -5.222656 C 5.046875 -5.457031 4.886719 -5.644531 4.65625 -5.785156 C 4.425781 -5.925781 4.15625 -5.992188 3.847656 -5.992188 C 3.355469 -5.992188 2.925781 -5.835938 2.570312 -5.523438 C 2.210938 -5.210938 2.03125 -4.613281 2.03125 -3.738281 L 2.03125 0 Z M 0.871094 0 "/>
</g>
<g id="glyph-2-17">
<path d="M 5.335938 -2.507812 L 6.476562 -2.359375 C 6.351562 -1.574219 6.035156 -0.957031 5.519531 -0.511719 C 5.007812 -0.0664062 4.375 0.15625 3.628906 0.15625 C 2.691406 0.15625 1.9375 -0.152344 1.371094 -0.765625 C 0.800781 -1.375 0.515625 -2.253906 0.515625 -3.398438 C 0.515625 -4.136719 0.636719 -4.78125 0.882812 -5.335938 C 1.128906 -5.890625 1.5 -6.308594 2 -6.582031 C 2.5 -6.859375 3.046875 -7 3.636719 -7 C 4.378906 -7 4.988281 -6.8125 5.460938 -6.4375 C 5.933594 -6.058594 6.234375 -5.527344 6.367188 -4.835938 L 5.238281 -4.660156 C 5.132812 -5.121094 4.941406 -5.464844 4.667969 -5.699219 C 4.398438 -5.929688 4.066406 -6.046875 3.679688 -6.046875 C 3.097656 -6.046875 2.621094 -5.835938 2.257812 -5.417969 C 1.890625 -5 1.707031 -4.335938 1.707031 -3.429688 C 1.707031 -2.507812 1.882812 -1.839844 2.238281 -1.425781 C 2.589844 -1.007812 3.046875 -0.800781 3.617188 -0.800781 C 4.070312 -0.800781 4.453125 -0.9375 4.757812 -1.21875 C 5.0625 -1.496094 5.253906 -1.925781 5.335938 -2.507812 Z M 5.335938 -2.507812 "/>
</g>
<g id="glyph-2-18">
<path d="M 3.085938 2.777344 C 2.445312 1.96875 1.90625 1.023438 1.464844 -0.0585938 C 1.019531 -1.140625 0.800781 -2.261719 0.800781 -3.421875 C 0.800781 -4.445312 0.964844 -5.425781 1.296875 -6.363281 C 1.683594 -7.449219 2.28125 -8.53125 3.085938 -9.609375 L 3.917969 -9.609375 C 3.398438 -8.714844 3.054688 -8.078125 2.886719 -7.695312 C 2.625 -7.101562 2.417969 -6.484375 2.269531 -5.839844 C 2.082031 -5.035156 1.992188 -4.226562 1.992188 -3.414062 C 1.992188 -1.347656 2.632812 0.714844 3.917969 2.777344 Z M 3.085938 2.777344 "/>
</g>
<g id="glyph-2-19">
<path d="M 1.628906 2.777344 L 0.800781 2.777344 C 2.082031 0.714844 2.726562 -1.347656 2.726562 -3.414062 C 2.726562 -4.222656 2.632812 -5.023438 2.449219 -5.820312 C 2.304688 -6.464844 2.097656 -7.082031 1.835938 -7.675781 C 1.667969 -8.0625 1.324219 -8.707031 0.800781 -9.609375 L 1.628906 -9.609375 C 2.4375 -8.53125 3.035156 -7.449219 3.421875 -6.363281 C 3.753906 -5.425781 3.917969 -4.445312 3.917969 -3.421875 C 3.917969 -2.261719 3.695312 -1.140625 3.25 -0.0585938 C 2.808594 1.023438 2.265625 1.96875 1.628906 2.777344 Z M 1.628906 2.777344 "/>
</g>
</g>
<clipPath id="clip-0">
<path clip-rule="nonzero" d="M 127.023438 24.40625 L 652.519531 24.40625 L 652.519531 452.722656 L 127.023438 452.722656 Z M 127.023438 24.40625 "/>
</clipPath>
<clipPath id="clip-1">
<path clip-rule="nonzero" d="M 217 24.40625 L 219 24.40625 L 219 452.722656 L 217 452.722656 Z M 217 24.40625 "/>
</clipPath>
<clipPath id="clip-2">
<path clip-rule="nonzero" d="M 351 24.40625 L 353 24.40625 L 353 452.722656 L 351 452.722656 Z M 351 24.40625 "/>
</clipPath>
<clipPath id="clip-3">
<path clip-rule="nonzero" d="M 486 24.40625 L 487 24.40625 L 487 452.722656 L 486 452.722656 Z M 486 24.40625 "/>
</clipPath>
<clipPath id="clip-4">
<path clip-rule="nonzero" d="M 620 24.40625 L 621 24.40625 L 621 452.722656 L 620 452.722656 Z M 620 24.40625 "/>
</clipPath>
<clipPath id="clip-5">
<path clip-rule="nonzero" d="M 127.023438 444 L 652.519531 444 L 652.519531 446 L 127.023438 446 Z M 127.023438 444 "/>
</clipPath>
<clipPath id="clip-6">
<path clip-rule="nonzero" d="M 127.023438 430 L 652.519531 430 L 652.519531 432 L 127.023438 432 Z M 127.023438 430 "/>
</clipPath>
<clipPath id="clip-7">
<path clip-rule="nonzero" d="M 127.023438 417 L 652.519531 417 L 652.519531 419 L 127.023438 419 Z M 127.023438 417 "/>
</clipPath>
<clipPath id="clip-8">
<path clip-rule="nonzero" d="M 127.023438 404 L 652.519531 404 L 652.519531 406 L 127.023438 406 Z M 127.023438 404 "/>
</clipPath>
<clipPath id="clip-9">
<path clip-rule="nonzero" d="M 127.023438 391 L 652.519531 391 L 652.519531 393 L 127.023438 393 Z M 127.023438 391 "/>
</clipPath>
<clipPath id="clip-10">
<path clip-rule="nonzero" d="M 127.023438 377 L 652.519531 377 L 652.519531 379 L 127.023438 379 Z M 127.023438 377 "/>
</clipPath>
<clipPath id="clip-11">
<path clip-rule="nonzero" d="M 127.023438 364 L 652.519531 364 L 652.519531 366 L 127.023438 366 Z M 127.023438 364 "/>
</clipPath>
<clipPath id="clip-12">
<path clip-rule="nonzero" d="M 127.023438 351 L 652.519531 351 L 652.519531 353 L 127.023438 353 Z M 127.023438 351 "/>
</clipPath>
<clipPath id="clip-13">
<path clip-rule="nonzero" d="M 127.023438 337 L 652.519531 337 L 652.519531 339 L 127.023438 339 Z M 127.023438 337 "/>
</clipPath>
<clipPath id="clip-14">
<path clip-rule="nonzero" d="M 127.023438 324 L 652.519531 324 L 652.519531 326 L 127.023438 326 Z M 127.023438 324 "/>
</clipPath>
<clipPath id="clip-15">
<path clip-rule="nonzero" d="M 127.023438 311 L 652.519531 311 L 652.519531 313 L 127.023438 313 Z M 127.023438 311 "/>
</clipPath>
<clipPath id="clip-16">
<path clip-rule="nonzero" d="M 127.023438 297 L 652.519531 297 L 652.519531 299 L 127.023438 299 Z M 127.023438 297 "/>
</clipPath>
<clipPath id="clip-17">
<path clip-rule="nonzero" d="M 127.023438 284 L 652.519531 284 L 652.519531 286 L 127.023438 286 Z M 127.023438 284 "/>
</clipPath>
<clipPath id="clip-18">
<path clip-rule="nonzero" d="M 127.023438 271 L 652.519531 271 L 652.519531 273 L 127.023438 273 Z M 127.023438 271 "/>
</clipPath>
<clipPath id="clip-19">
<path clip-rule="nonzero" d="M 127.023438 257 L 652.519531 257 L 652.519531 260 L 127.023438 260 Z M 127.023438 257 "/>
</clipPath>
<clipPath id="clip-20">
<path clip-rule="nonzero" d="M 127.023438 244 L 652.519531 244 L 652.519531 246 L 127.023438 246 Z M 127.023438 244 "/>
</clipPath>
<clipPath id="clip-21">
<path clip-rule="nonzero" d="M 127.023438 231 L 652.519531 231 L 652.519531 233 L 127.023438 233 Z M 127.023438 231 "/>
</clipPath>
<clipPath id="clip-22">
<path clip-rule="nonzero" d="M 127.023438 218 L 652.519531 218 L 652.519531 220 L 127.023438 220 Z M 127.023438 218 "/>
</clipPath>
<clipPath id="clip-23">
<path clip-rule="nonzero" d="M 127.023438 204 L 652.519531 204 L 652.519531 206 L 127.023438 206 Z M 127.023438 204 "/>
</clipPath>
<clipPath id="clip-24">
<path clip-rule="nonzero" d="M 127.023438 191 L 652.519531 191 L 652.519531 193 L 127.023438 193 Z M 127.023438 191 "/>
</clipPath>
<clipPath id="clip-25">
<path clip-rule="nonzero" d="M 127.023438 178 L 652.519531 178 L 652.519531 180 L 127.023438 180 Z M 127.023438 178 "/>
</clipPath>
<clipPath id="clip-26">
<path clip-rule="nonzero" d="M 127.023438 164 L 652.519531 164 L 652.519531 166 L 127.023438 166 Z M 127.023438 164 "/>
</clipPath>
<clipPath id="clip-27">
<path clip-rule="nonzero" d="M 127.023438 151 L 652.519531 151 L 652.519531 153 L 127.023438 153 Z M 127.023438 151 "/>
</clipPath>
<clipPath id="clip-28">
<path clip-rule="nonzero" d="M 127.023438 138 L 652.519531 138 L 652.519531 140 L 127.023438 140 Z M 127.023438 138 "/>
</clipPath>
<clipPath id="clip-29">
<path clip-rule="nonzero" d="M 127.023438 124 L 652.519531 124 L 652.519531 127 L 127.023438 127 Z M 127.023438 124 "/>
</clipPath>
<clipPath id="clip-30">
<path clip-rule="nonzero" d="M 127.023438 111 L 652.519531 111 L 652.519531 113 L 127.023438 113 Z M 127.023438 111 "/>
</clipPath>
<clipPath id="clip-31">
<path clip-rule="nonzero" d="M 127.023438 98 L 652.519531 98 L 652.519531 100 L 127.023438 100 Z M 127.023438 98 "/>
</clipPath>
<clipPath id="clip-32">
<path clip-rule="nonzero" d="M 127.023438 85 L 652.519531 85 L 652.519531 87 L 127.023438 87 Z M 127.023438 85 "/>
</clipPath>
<clipPath id="clip-33">
<path clip-rule="nonzero" d="M 127.023438 71 L 652.519531 71 L 652.519531 73 L 127.023438 73 Z M 127.023438 71 "/>
</clipPath>
<clipPath id="clip-34">
<path clip-rule="nonzero" d="M 127.023438 58 L 652.519531 58 L 652.519531 60 L 127.023438 60 Z M 127.023438 58 "/>
</clipPath>
<clipPath id="clip-35">
<path clip-rule="nonzero" d="M 127.023438 45 L 652.519531 45 L 652.519531 47 L 127.023438 47 Z M 127.023438 45 "/>
</clipPath>
<clipPath id="clip-36">
<path clip-rule="nonzero" d="M 127.023438 31 L 652.519531 31 L 652.519531 33 L 127.023438 33 Z M 127.023438 31 "/>
</clipPath>
<clipPath id="clip-37">
<path clip-rule="nonzero" d="M 150 24.40625 L 152 24.40625 L 152 452.722656 L 150 452.722656 Z M 150 24.40625 "/>
</clipPath>
<clipPath id="clip-38">
<path clip-rule="nonzero" d="M 284 24.40625 L 286 24.40625 L 286 452.722656 L 284 452.722656 Z M 284 24.40625 "/>
</clipPath>
<clipPath id="clip-39">
<path clip-rule="nonzero" d="M 418 24.40625 L 420 24.40625 L 420 452.722656 L 418 452.722656 Z M 418 24.40625 "/>
</clipPath>
<clipPath id="clip-40">
<path clip-rule="nonzero" d="M 552 24.40625 L 554 24.40625 L 554 452.722656 L 552 452.722656 Z M 552 24.40625 "/>
</clipPath>
</defs>
<rect x="-65.8" y="-48.6" width="789.6" height="583.2" fill="rgb(100%, 100%, 100%)" fill-opacity="1"/>
<rect x="-65.8" y="-48.6" width="789.6" height="583.2" fill="rgb(100%, 100%, 100%)" fill-opacity="1"/>
<path fill="none" stroke-width="1.066978" stroke-linecap="round" stroke-linejoin="round" stroke="rgb(100%, 100%, 100%)" stroke-opacity="1" stroke-miterlimit="10" d="M 0 486 L 658 486 L 658 0 L 0 0 Z M 0 486 "/>
<g clip-path="url(#clip-0)">
<path fill-rule="nonzero" fill="rgb(92.156863%, 92.156863%, 92.156863%)" fill-opacity="1" d="M 127.023438 452.726562 L 652.519531 452.726562 L 652.519531 24.410156 L 127.023438 24.410156 Z M 127.023438 452.726562 "/>
</g>
<g clip-path="url(#clip-1)">
<path fill="none" stroke-width="0.533489" stroke-linecap="butt" stroke-linejoin="round" stroke="rgb(100%, 100%, 100%)" stroke-opacity="1" stroke-miterlimit="10" d="M 217.992188 452.726562 L 217.992188 24.40625 "/>
</g>
<g clip-path="url(#clip-2)">
<path fill="none" stroke-width="0.533489" stroke-linecap="butt" stroke-linejoin="round" stroke="rgb(100%, 100%, 100%)" stroke-opacity="1" stroke-miterlimit="10" d="M 352.152344 452.726562 L 352.152344 24.40625 "/>
</g>
<g clip-path="url(#clip-3)">
<path fill="none" stroke-width="0.533489" stroke-linecap="butt" stroke-linejoin="round" stroke="rgb(100%, 100%, 100%)" stroke-opacity="1" stroke-miterlimit="10" d="M 486.316406 452.726562 L 486.316406 24.40625 "/>
</g>
<g clip-path="url(#clip-4)">
<path fill="none" stroke-width="0.533489" stroke-linecap="butt" stroke-linejoin="round" stroke="rgb(100%, 100%, 100%)" stroke-opacity="1" stroke-miterlimit="10" d="M 620.476562 452.726562 L 620.476562 24.40625 "/>
</g>
<g clip-path="url(#clip-5)">
<path fill="none" stroke-width="1.066978" stroke-linecap="butt" stroke-linejoin="round" stroke="rgb(100%, 100%, 100%)" stroke-opacity="1" stroke-miterlimit="10" d="M 127.023438 444.746094 L 652.519531 444.746094 "/>
</g>
<g clip-path="url(#clip-6)">
<path fill="none" stroke-width="1.066978" stroke-linecap="butt" stroke-linejoin="round" stroke="rgb(100%, 100%, 100%)" stroke-opacity="1" stroke-miterlimit="10" d="M 127.023438 431.441406 L 652.519531 431.441406 "/>
</g>
<g clip-path="url(#clip-7)">
<path fill="none" stroke-width="1.066978" stroke-linecap="butt" stroke-linejoin="round" stroke="rgb(100%, 100%, 100%)" stroke-opacity="1" stroke-miterlimit="10" d="M 127.023438 418.140625 L 652.519531 418.140625 "/>
</g>
<g clip-path="url(#clip-8)">
<path fill="none" stroke-width="1.066978" stroke-linecap="butt" stroke-linejoin="round" stroke="rgb(100%, 100%, 100%)" stroke-opacity="1" stroke-miterlimit="10" d="M 127.023438 404.839844 L 652.519531 404.839844 "/>
</g>
<g clip-path="url(#clip-9)">
<path fill="none" stroke-width="1.066978" stroke-linecap="butt" stroke-linejoin="round" stroke="rgb(100%, 100%, 100%)" stroke-opacity="1" stroke-miterlimit="10" d="M 127.023438 391.535156 L 652.519531 391.535156 "/>
</g>
<g clip-path="url(#clip-10)">
<path fill="none" stroke-width="1.066978" stroke-linecap="butt" stroke-linejoin="round" stroke="rgb(100%, 100%, 100%)" stroke-opacity="1" stroke-miterlimit="10" d="M 127.023438 378.234375 L 652.519531 378.234375 "/>
</g>
<g clip-path="url(#clip-11)">
<path fill="none" stroke-width="1.066978" stroke-linecap="butt" stroke-linejoin="round" stroke="rgb(100%, 100%, 100%)" stroke-opacity="1" stroke-miterlimit="10" d="M 127.023438 364.933594 L 652.519531 364.933594 "/>
</g>
<g clip-path="url(#clip-12)">
<path fill="none" stroke-width="1.066978" stroke-linecap="butt" stroke-linejoin="round" stroke="rgb(100%, 100%, 100%)" stroke-opacity="1" stroke-miterlimit="10" d="M 127.023438 351.632812 L 652.519531 351.632812 "/>
</g>
<g clip-path="url(#clip-13)">
<path fill="none" stroke-width="1.066978" stroke-linecap="butt" stroke-linejoin="round" stroke="rgb(100%, 100%, 100%)" stroke-opacity="1" stroke-miterlimit="10" d="M 127.023438 338.328125 L 652.519531 338.328125 "/>
</g>
<g clip-path="url(#clip-14)">
<path fill="none" stroke-width="1.066978" stroke-linecap="butt" stroke-linejoin="round" stroke="rgb(100%, 100%, 100%)" stroke-opacity="1" stroke-miterlimit="10" d="M 127.023438 325.027344 L 652.519531 325.027344 "/>
</g>
<g clip-path="url(#clip-15)">
<path fill="none" stroke-width="1.066978" stroke-linecap="butt" stroke-linejoin="round" stroke="rgb(100%, 100%, 100%)" stroke-opacity="1" stroke-miterlimit="10" d="M 127.023438 311.726562 L 652.519531 311.726562 "/>
</g>
<g clip-path="url(#clip-16)">
<path fill="none" stroke-width="1.066978" stroke-linecap="butt" stroke-linejoin="round" stroke="rgb(100%, 100%, 100%)" stroke-opacity="1" stroke-miterlimit="10" d="M 127.023438 298.425781 L 652.519531 298.425781 "/>
</g>
<g clip-path="url(#clip-17)">
<path fill="none" stroke-width="1.066978" stroke-linecap="butt" stroke-linejoin="round" stroke="rgb(100%, 100%, 100%)" stroke-opacity="1" stroke-miterlimit="10" d="M 127.023438 285.121094 L 652.519531 285.121094 "/>
</g>
<g clip-path="url(#clip-18)">
<path fill="none" stroke-width="1.066978" stroke-linecap="butt" stroke-linejoin="round" stroke="rgb(100%, 100%, 100%)" stroke-opacity="1" stroke-miterlimit="10" d="M 127.023438 271.820312 L 652.519531 271.820312 "/>
</g>
<g clip-path="url(#clip-19)">
<path fill="none" stroke-width="1.066978" stroke-linecap="butt" stroke-linejoin="round" stroke="rgb(100%, 100%, 100%)" stroke-opacity="1" stroke-miterlimit="10" d="M 127.023438 258.519531 L 652.519531 258.519531 "/>
</g>
<g clip-path="url(#clip-20)">
<path fill="none" stroke-width="1.066978" stroke-linecap="butt" stroke-linejoin="round" stroke="rgb(100%, 100%, 100%)" stroke-opacity="1" stroke-miterlimit="10" d="M 127.023438 245.21875 L 652.519531 245.21875 "/>
</g>
<g clip-path="url(#clip-21)">
<path fill="none" stroke-width="1.066978" stroke-linecap="butt" stroke-linejoin="round" stroke="rgb(100%, 100%, 100%)" stroke-opacity="1" stroke-miterlimit="10" d="M 127.023438 231.914062 L 652.519531 231.914062 "/>
</g>
<g clip-path="url(#clip-22)">
<path fill="none" stroke-width="1.066978" stroke-linecap="butt" stroke-linejoin="round" stroke="rgb(100%, 100%, 100%)" stroke-opacity="1" stroke-miterlimit="10" d="M 127.023438 218.613281 L 652.519531 218.613281 "/>
</g>
<g clip-path="url(#clip-23)">
<path fill="none" stroke-width="1.066978" stroke-linecap="butt" stroke-linejoin="round" stroke="rgb(100%, 100%, 100%)" stroke-opacity="1" stroke-miterlimit="10" d="M 127.023438 205.3125 L 652.519531 205.3125 "/>
</g>
<g clip-path="url(#clip-24)">
<path fill="none" stroke-width="1.066978" stroke-linecap="butt" stroke-linejoin="round" stroke="rgb(100%, 100%, 100%)" stroke-opacity="1" stroke-miterlimit="10" d="M 127.023438 192.011719 L 652.519531 192.011719 "/>
</g>
<g clip-path="url(#clip-25)">
<path fill="none" stroke-width="1.066978" stroke-linecap="butt" stroke-linejoin="round" stroke="rgb(100%, 100%, 100%)" stroke-opacity="1" stroke-miterlimit="10" d="M 127.023438 178.707031 L 652.519531 178.707031 "/>
</g>
<g clip-path="url(#clip-26)">
<path fill="none" stroke-width="1.066978" stroke-linecap="butt" stroke-linejoin="round" stroke="rgb(100%, 100%, 100%)" stroke-opacity="1" stroke-miterlimit="10" d="M 127.023438 165.40625 L 652.519531 165.40625 "/>
</g>
<g clip-path="url(#clip-27)">
<path fill="none" stroke-width="1.066978" stroke-linecap="butt" stroke-linejoin="round" stroke="rgb(100%, 100%, 100%)" stroke-opacity="1" stroke-miterlimit="10" d="M 127.023438 152.105469 L 652.519531 152.105469 "/>
</g>
<g clip-path="url(#clip-28)">
<path fill="none" stroke-width="1.066978" stroke-linecap="butt" stroke-linejoin="round" stroke="rgb(100%, 100%, 100%)" stroke-opacity="1" stroke-miterlimit="10" d="M 127.023438 138.804688 L 652.519531 138.804688 "/>
</g>
<g clip-path="url(#clip-29)">
<path fill="none" stroke-width="1.066978" stroke-linecap="butt" stroke-linejoin="round" stroke="rgb(100%, 100%, 100%)" stroke-opacity="1" stroke-miterlimit="10" d="M 127.023438 125.5 L 652.519531 125.5 "/>
</g>
<g clip-path="url(#clip-30)">
<path fill="none" stroke-width="1.066978" stroke-linecap="butt" stroke-linejoin="round" stroke="rgb(100%, 100%, 100%)" stroke-opacity="1" stroke-miterlimit="10" d="M 127.023438 112.199219 L 652.519531 112.199219 "/>
</g>
<g clip-path="url(#clip-31)">
<path fill="none" stroke-width="1.066978" stroke-linecap="butt" stroke-linejoin="round" stroke="rgb(100%, 100%, 100%)" stroke-opacity="1" stroke-miterlimit="10" d="M 127.023438 98.898438 L 652.519531 98.898438 "/>
</g>
<g clip-path="url(#clip-32)">
<path fill="none" stroke-width="1.066978" stroke-linecap="butt" stroke-linejoin="round" stroke="rgb(100%, 100%, 100%)" stroke-opacity="1" stroke-miterlimit="10" d="M 127.023438 85.597656 L 652.519531 85.597656 "/>
</g>
<g clip-path="url(#clip-33)">
<path fill="none" stroke-width="1.066978" stroke-linecap="butt" stroke-linejoin="round" stroke="rgb(100%, 100%, 100%)" stroke-opacity="1" stroke-miterlimit="10" d="M 127.023438 72.292969 L 652.519531 72.292969 "/>
</g>
<g clip-path="url(#clip-34)">
<path fill="none" stroke-width="1.066978" stroke-linecap="butt" stroke-linejoin="round" stroke="rgb(100%, 100%, 100%)" stroke-opacity="1" stroke-miterlimit="10" d="M 127.023438 58.992188 L 652.519531 58.992188 "/>
</g>
<g clip-path="url(#clip-35)">
<path fill="none" stroke-width="1.066978" stroke-linecap="butt" stroke-linejoin="round" stroke="rgb(100%, 100%, 100%)" stroke-opacity="1" stroke-miterlimit="10" d="M 127.023438 45.691406 L 652.519531 45.691406 "/>
</g>
<g clip-path="url(#clip-36)">
<path fill="none" stroke-width="1.066978" stroke-linecap="butt" stroke-linejoin="round" stroke="rgb(100%, 100%, 100%)" stroke-opacity="1" stroke-miterlimit="10" d="M 127.023438 32.390625 L 652.519531 32.390625 "/>
</g>
<g clip-path="url(#clip-37)">
<path fill="none" stroke-width="1.066978" stroke-linecap="butt" stroke-linejoin="round" stroke="rgb(100%, 100%, 100%)" stroke-opacity="1" stroke-miterlimit="10" d="M 150.910156 452.726562 L 150.910156 24.40625 "/>
</g>
<g clip-path="url(#clip-38)">
<path fill="none" stroke-width="1.066978" stroke-linecap="butt" stroke-linejoin="round" stroke="rgb(100%, 100%, 100%)" stroke-opacity="1" stroke-miterlimit="10" d="M 285.074219 452.726562 L 285.074219 24.40625 "/>
</g>
<g clip-path="url(#clip-39)">
<path fill="none" stroke-width="1.066978" stroke-linecap="butt" stroke-linejoin="round" stroke="rgb(100%, 100%, 100%)" stroke-opacity="1" stroke-miterlimit="10" d="M 419.234375 452.726562 L 419.234375 24.40625 "/>
</g>
<g clip-path="url(#clip-40)">
<path fill="none" stroke-width="1.066978" stroke-linecap="butt" stroke-linejoin="round" stroke="rgb(100%, 100%, 100%)" stroke-opacity="1" stroke-miterlimit="10" d="M 553.394531 452.726562 L 553.394531 24.40625 "/>
</g>
<path fill-rule="nonzero" fill="rgb(27.45098%, 50.980392%, 70.588235%)" fill-opacity="1" d="M 150.910156 38.375 L 628.632812 38.375 L 628.632812 26.402344 L 150.910156 26.402344 Z M 150.910156 38.375 "/>
<path fill-rule="nonzero" fill="rgb(27.45098%, 50.980392%, 70.588235%)" fill-opacity="1" d="M 150.910156 51.675781 L 534.921875 51.675781 L 534.921875 39.703125 L 150.910156 39.703125 Z M 150.910156 51.675781 "/>
<path fill-rule="nonzero" fill="rgb(27.45098%, 50.980392%, 70.588235%)" fill-opacity="1" d="M 150.910156 64.976562 L 442.132812 64.976562 L 442.132812 53.003906 L 150.910156 53.003906 Z M 150.910156 64.976562 "/>
<path fill-rule="nonzero" fill="rgb(27.45098%, 50.980392%, 70.588235%)" fill-opacity="1" d="M 150.910156 78.28125 L 438.3125 78.28125 L 438.3125 66.308594 L 150.910156 66.308594 Z M 150.910156 78.28125 "/>
<path fill-rule="nonzero" fill="rgb(27.45098%, 50.980392%, 70.588235%)" fill-opacity="1" d="M 150.910156 91.582031 L 431.734375 91.582031 L 431.734375 79.609375 L 150.910156 79.609375 Z M 150.910156 91.582031 "/>
<path fill-rule="nonzero" fill="rgb(27.45098%, 50.980392%, 70.588235%)" fill-opacity="1" d="M 150.910156 104.882812 L 428.941406 104.882812 L 428.941406 92.910156 L 150.910156 92.910156 Z M 150.910156 104.882812 "/>
<path fill-rule="nonzero" fill="rgb(27.45098%, 50.980392%, 70.588235%)" fill-opacity="1" d="M 150.910156 118.183594 L 422.5625 118.183594 L 422.5625 106.210938 L 150.910156 106.210938 Z M 150.910156 118.183594 "/>
<path fill-rule="nonzero" fill="rgb(27.45098%, 50.980392%, 70.588235%)" fill-opacity="1" d="M 150.910156 131.488281 L 414.199219 131.488281 L 414.199219 119.515625 L 150.910156 119.515625 Z M 150.910156 131.488281 "/>
<path fill-rule="nonzero" fill="rgb(27.45098%, 50.980392%, 70.588235%)" fill-opacity="1" d="M 150.910156 144.789062 L 398.203125 144.789062 L 398.203125 132.816406 L 150.910156 132.816406 Z M 150.910156 144.789062 "/>
<path fill-rule="nonzero" fill="rgb(27.45098%, 50.980392%, 70.588235%)" fill-opacity="1" d="M 150.910156 158.089844 L 390.375 158.089844 L 390.375 146.117188 L 150.910156 146.117188 Z M 150.910156 158.089844 "/>
<path fill-rule="nonzero" fill="rgb(27.45098%, 50.980392%, 70.588235%)" fill-opacity="1" d="M 150.910156 171.390625 L 388.019531 171.390625 L 388.019531 159.417969 L 150.910156 159.417969 Z M 150.910156 171.390625 "/>
<path fill-rule="nonzero" fill="rgb(27.45098%, 50.980392%, 70.588235%)" fill-opacity="1" d="M 150.910156 184.695312 L 376.109375 184.695312 L 376.109375 172.722656 L 150.910156 172.722656 Z M 150.910156 184.695312 "/>
<path fill-rule="nonzero" fill="rgb(27.45098%, 50.980392%, 70.588235%)" fill-opacity="1" d="M 150.910156 197.996094 L 374.558594 197.996094 L 374.558594 186.023438 L 150.910156 186.023438 Z M 150.910156 197.996094 "/>
<path fill-rule="nonzero" fill="rgb(27.45098%, 50.980392%, 70.588235%)" fill-opacity="1" d="M 150.910156 211.296875 L 372.140625 211.296875 L 372.140625 199.324219 L 150.910156 199.324219 Z M 150.910156 211.296875 "/>
<path fill-rule="nonzero" fill="rgb(27.45098%, 50.980392%, 70.588235%)" fill-opacity="1" d="M 150.910156 224.601562 L 370.242188 224.601562 L 370.242188 212.628906 L 150.910156 212.628906 Z M 150.910156 224.601562 "/>
<path fill-rule="nonzero" fill="rgb(27.45098%, 50.980392%, 70.588235%)" fill-opacity="1" d="M 150.910156 237.902344 L 367.003906 237.902344 L 367.003906 225.929688 L 150.910156 225.929688 Z M 150.910156 237.902344 "/>
<path fill-rule="nonzero" fill="rgb(27.45098%, 50.980392%, 70.588235%)" fill-opacity="1" d="M 150.910156 251.203125 L 359.78125 251.203125 L 359.78125 239.230469 L 150.910156 239.230469 Z M 150.910156 251.203125 "/>
<path fill-rule="nonzero" fill="rgb(27.45098%, 50.980392%, 70.588235%)" fill-opacity="1" d="M 150.910156 264.503906 L 357.863281 264.503906 L 357.863281 252.53125 L 150.910156 252.53125 Z M 150.910156 264.503906 "/>
<path fill-rule="nonzero" fill="rgb(27.45098%, 50.980392%, 70.588235%)" fill-opacity="1" d="M 150.910156 277.808594 L 350.722656 277.808594 L 350.722656 265.835938 L 150.910156 265.835938 Z M 150.910156 277.808594 "/>
<path fill-rule="nonzero" fill="rgb(27.45098%, 50.980392%, 70.588235%)" fill-opacity="1" d="M 150.910156 291.109375 L 350.441406 291.109375 L 350.441406 279.136719 L 150.910156 279.136719 Z M 150.910156 291.109375 "/>
<path fill-rule="nonzero" fill="rgb(27.45098%, 50.980392%, 70.588235%)" fill-opacity="1" d="M 150.910156 304.410156 L 349.238281 304.410156 L 349.238281 292.4375 L 150.910156 292.4375 Z M 150.910156 304.410156 "/>
<path fill-rule="nonzero" fill="rgb(27.45098%, 50.980392%, 70.588235%)" fill-opacity="1" d="M 150.910156 317.710938 L 347.519531 317.710938 L 347.519531 305.738281 L 150.910156 305.738281 Z M 150.910156 317.710938 "/>
<path fill-rule="nonzero" fill="rgb(27.45098%, 50.980392%, 70.588235%)" fill-opacity="1" d="M 150.910156 331.015625 L 346.988281 331.015625 L 346.988281 319.042969 L 150.910156 319.042969 Z M 150.910156 331.015625 "/>
<path fill-rule="nonzero" fill="rgb(27.45098%, 50.980392%, 70.588235%)" fill-opacity="1" d="M 150.910156 344.316406 L 342.894531 344.316406 L 342.894531 332.34375 L 150.910156 332.34375 Z M 150.910156 344.316406 "/>
<path fill-rule="nonzero" fill="rgb(27.45098%, 50.980392%, 70.588235%)" fill-opacity="1" d="M 150.910156 357.617188 L 342.433594 357.617188 L 342.433594 345.644531 L 150.910156 345.644531 Z M 150.910156 357.617188 "/>
<path fill-rule="nonzero" fill="rgb(27.45098%, 50.980392%, 70.588235%)" fill-opacity="1" d="M 150.910156 370.917969 L 341.417969 370.917969 L 341.417969 358.945312 L 150.910156 358.945312 Z M 150.910156 370.917969 "/>
<path fill-rule="nonzero" fill="rgb(27.45098%, 50.980392%, 70.588235%)" fill-opacity="1" d="M 150.910156 384.222656 L 338.4375 384.222656 L 338.4375 372.25 L 150.910156 372.25 Z M 150.910156 384.222656 "/>
<path fill-rule="nonzero" fill="rgb(27.45098%, 50.980392%, 70.588235%)" fill-opacity="1" d="M 150.910156 397.523438 L 337.542969 397.523438 L 337.542969 385.550781 L 150.910156 385.550781 Z M 150.910156 397.523438 "/>
<path fill-rule="nonzero" fill="rgb(27.45098%, 50.980392%, 70.588235%)" fill-opacity="1" d="M 150.910156 410.824219 L 333.570312 410.824219 L 333.570312 398.851562 L 150.910156 398.851562 Z M 150.910156 410.824219 "/>
<path fill-rule="nonzero" fill="rgb(27.45098%, 50.980392%, 70.588235%)" fill-opacity="1" d="M 150.910156 424.125 L 333.382812 424.125 L 333.382812 412.152344 L 150.910156 412.152344 Z M 150.910156 424.125 "/>
<path fill-rule="nonzero" fill="rgb(27.45098%, 50.980392%, 70.588235%)" fill-opacity="1" d="M 150.910156 437.429688 L 332.492188 437.429688 L 332.492188 425.457031 L 150.910156 425.457031 Z M 150.910156 437.429688 "/>
<path fill-rule="nonzero" fill="rgb(27.45098%, 50.980392%, 70.588235%)" fill-opacity="1" d="M 150.910156 450.730469 L 326.6875 450.730469 L 326.6875 438.757812 L 150.910156 438.757812 Z M 150.910156 450.730469 "/>
<g fill="rgb(30.196078%, 30.196078%, 30.196078%)" fill-opacity="1">
<use xlink:href="#glyph-0-0" x="102.539062" y="448.394531"/>
<use xlink:href="#glyph-0-1" x="109.383984" y="448.394531"/>
<use xlink:href="#glyph-0-1" x="115.739063" y="448.394531"/>
</g>
<g fill="rgb(30.196078%, 30.196078%, 30.196078%)" fill-opacity="1">
<use xlink:href="#glyph-0-2" x="97.15625" y="435.09375"/>
<use xlink:href="#glyph-0-3" x="104.001172" y="435.09375"/>
<use xlink:href="#glyph-0-4" x="109.870703" y="435.09375"/>
<use xlink:href="#glyph-0-5" x="114.764844" y="435.09375"/>
</g>
<g fill="rgb(30.196078%, 30.196078%, 30.196078%)" fill-opacity="1">
<use xlink:href="#glyph-0-6" x="80.53125" y="421.789062"/>
<use xlink:href="#glyph-0-4" x="85.906641" y="421.789062"/>
<use xlink:href="#glyph-0-5" x="90.800781" y="421.789062"/>
<use xlink:href="#glyph-0-7" x="98.13125" y="421.789062"/>
<use xlink:href="#glyph-0-5" x="103.025391" y="421.789062"/>
<use xlink:href="#glyph-0-8" x="110.355859" y="421.789062"/>
<use xlink:href="#glyph-0-9" x="116.225391" y="421.789062"/>
</g>
<g fill="rgb(30.196078%, 30.196078%, 30.196078%)" fill-opacity="1">
<use xlink:href="#glyph-0-10" x="104.484375" y="408.488281"/>
<use xlink:href="#glyph-0-11" x="110.353906" y="408.488281"/>
<use xlink:href="#glyph-0-3" x="116.223437" y="408.488281"/>
</g>
<g fill="rgb(30.196078%, 30.196078%, 30.196078%)" fill-opacity="1">
<use xlink:href="#glyph-0-12" x="115.738281" y="395.1875"/>
</g>
<g fill="rgb(30.196078%, 30.196078%, 30.196078%)" fill-opacity="1">
<use xlink:href="#glyph-0-13" x="104.980469" y="381.886719"/>
<use xlink:href="#glyph-0-6" x="110.85" y="381.886719"/>
<use xlink:href="#glyph-0-11" x="116.225391" y="381.886719"/>
</g>
<g fill="rgb(30.196078%, 30.196078%, 30.196078%)" fill-opacity="1">
<use xlink:href="#glyph-0-6" x="104.492188" y="368.582031"/>
<use xlink:href="#glyph-0-4" x="109.867578" y="368.582031"/>
<use xlink:href="#glyph-0-5" x="114.761719" y="368.582031"/>
</g>
<g fill="rgb(30.196078%, 30.196078%, 30.196078%)" fill-opacity="1">
<use xlink:href="#glyph-0-14" x="98.140625" y="355.28125"/>
<use xlink:href="#glyph-0-15" x="103.516016" y="355.28125"/>
<use xlink:href="#glyph-0-16" x="109.871094" y="355.28125"/>
<use xlink:href="#glyph-0-13" x="116.226172" y="355.28125"/>
</g>
<g fill="rgb(30.196078%, 30.196078%, 30.196078%)" fill-opacity="1">
<use xlink:href="#glyph-0-6" x="105.46875" y="341.980469"/>
<use xlink:href="#glyph-0-17" x="110.844141" y="341.980469"/>
<use xlink:href="#glyph-0-4" x="117.199219" y="341.980469"/>
</g>
<g fill="rgb(30.196078%, 30.196078%, 30.196078%)" fill-opacity="1">
<use xlink:href="#glyph-0-6" x="105.46875" y="328.679688"/>
<use xlink:href="#glyph-0-17" x="110.844141" y="328.679688"/>
<use xlink:href="#glyph-0-18" x="117.199219" y="328.679688"/>
</g>
<g fill="rgb(30.196078%, 30.196078%, 30.196078%)" fill-opacity="1">
<use xlink:href="#glyph-0-15" x="104.492188" y="315.375"/>
<use xlink:href="#glyph-0-6" x="110.847266" y="315.375"/>
<use xlink:href="#glyph-0-8" x="116.222656" y="315.375"/>
</g>
<g fill="rgb(30.196078%, 30.196078%, 30.196078%)" fill-opacity="1">
<use xlink:href="#glyph-0-6" x="83.964844" y="302.074219"/>
<use xlink:href="#glyph-0-4" x="89.340234" y="302.074219"/>
<use xlink:href="#glyph-0-5" x="94.234375" y="302.074219"/>
<use xlink:href="#glyph-0-1" x="101.564844" y="302.074219"/>
<use xlink:href="#glyph-0-13" x="107.919922" y="302.074219"/>
<use xlink:href="#glyph-0-19" x="113.789453" y="302.074219"/>
</g>
<g fill="rgb(30.196078%, 30.196078%, 30.196078%)" fill-opacity="1">
<use xlink:href="#glyph-0-3" x="104" y="288.773438"/>
<use xlink:href="#glyph-0-11" x="109.869531" y="288.773438"/>
<use xlink:href="#glyph-0-1" x="115.739062" y="288.773438"/>
</g>
<g fill="rgb(30.196078%, 30.196078%, 30.196078%)" fill-opacity="1">
<use xlink:href="#glyph-0-13" x="80.53125" y="275.46875"/>
<use xlink:href="#glyph-0-3" x="86.400781" y="275.46875"/>
<use xlink:href="#glyph-0-11" x="92.270312" y="275.46875"/>
<use xlink:href="#glyph-0-6" x="98.139844" y="275.46875"/>
<use xlink:href="#glyph-0-15" x="103.515234" y="275.46875"/>
<use xlink:href="#glyph-0-12" x="109.870312" y="275.46875"/>
<use xlink:href="#glyph-0-10" x="116.225391" y="275.46875"/>
</g>
<g fill="rgb(30.196078%, 30.196078%, 30.196078%)" fill-opacity="1">
<use xlink:href="#glyph-0-6" x="83.46875" y="262.167969"/>
<use xlink:href="#glyph-0-4" x="88.844141" y="262.167969"/>
<use xlink:href="#glyph-0-5" x="93.738281" y="262.167969"/>
<use xlink:href="#glyph-0-7" x="101.06875" y="262.167969"/>
<use xlink:href="#glyph-0-5" x="105.962891" y="262.167969"/>
<use xlink:href="#glyph-0-20" x="113.293359" y="262.167969"/>
<use xlink:href="#glyph-0-12" x="115.738281" y="262.167969"/>
</g>
<g fill="rgb(30.196078%, 30.196078%, 30.196078%)" fill-opacity="1">
<use xlink:href="#glyph-0-8" x="43.34375" y="248.867188"/>
<use xlink:href="#glyph-0-21" x="49.213281" y="248.867188"/>
<use xlink:href="#glyph-0-21" x="54.107422" y="248.867188"/>
<use xlink:href="#glyph-0-10" x="59.001562" y="248.867188"/>
<use xlink:href="#glyph-0-22" x="64.871094" y="248.867188"/>
<use xlink:href="#glyph-0-23" x="70.740625" y="248.867188"/>
<use xlink:href="#glyph-0-7" x="76.610156" y="248.867188"/>
<use xlink:href="#glyph-0-10" x="81.504297" y="248.867188"/>
<use xlink:href="#glyph-0-14" x="87.373828" y="248.867188"/>
<use xlink:href="#glyph-0-24" x="92.749219" y="248.867188"/>
<use xlink:href="#glyph-0-7" x="99.104297" y="248.867188"/>
<use xlink:href="#glyph-0-16" x="103.998437" y="248.867188"/>
<use xlink:href="#glyph-0-3" x="110.353516" y="248.867188"/>
<use xlink:href="#glyph-0-25" x="116.223047" y="248.867188"/>
</g>
<g fill="rgb(30.196078%, 30.196078%, 30.196078%)" fill-opacity="1">
<use xlink:href="#glyph-0-8" x="21.351562" y="235.566406"/>
<use xlink:href="#glyph-0-21" x="27.221094" y="235.566406"/>
<use xlink:href="#glyph-0-21" x="32.115234" y="235.566406"/>
<use xlink:href="#glyph-0-10" x="37.009375" y="235.566406"/>
<use xlink:href="#glyph-0-22" x="42.878906" y="235.566406"/>
<use xlink:href="#glyph-0-23" x="48.748438" y="235.566406"/>
<use xlink:href="#glyph-0-7" x="54.617969" y="235.566406"/>
<use xlink:href="#glyph-0-10" x="59.512109" y="235.566406"/>
<use xlink:href="#glyph-0-14" x="65.381641" y="235.566406"/>
<use xlink:href="#glyph-0-24" x="70.757031" y="235.566406"/>
<use xlink:href="#glyph-0-7" x="77.112109" y="235.566406"/>
<use xlink:href="#glyph-0-10" x="82.00625" y="235.566406"/>
<use xlink:href="#glyph-0-19" x="87.875781" y="235.566406"/>
<use xlink:href="#glyph-0-7" x="96.181641" y="235.566406"/>
<use xlink:href="#glyph-0-1" x="101.075781" y="235.566406"/>
<use xlink:href="#glyph-0-19" x="107.430859" y="235.566406"/>
<use xlink:href="#glyph-0-12" x="115.736719" y="235.566406"/>
</g>
<g fill="rgb(30.196078%, 30.196078%, 30.196078%)" fill-opacity="1">
<use xlink:href="#glyph-0-8" x="20.855469" y="222.261719"/>
<use xlink:href="#glyph-0-21" x="26.725" y="222.261719"/>
<use xlink:href="#glyph-0-21" x="31.619141" y="222.261719"/>
<use xlink:href="#glyph-0-10" x="36.513281" y="222.261719"/>
<use xlink:href="#glyph-0-22" x="42.382812" y="222.261719"/>
<use xlink:href="#glyph-0-23" x="48.252344" y="222.261719"/>
<use xlink:href="#glyph-0-7" x="54.121875" y="222.261719"/>
<use xlink:href="#glyph-0-10" x="59.016016" y="222.261719"/>
<use xlink:href="#glyph-0-14" x="64.885547" y="222.261719"/>
<use xlink:href="#glyph-0-24" x="70.260937" y="222.261719"/>
<use xlink:href="#glyph-0-7" x="76.616016" y="222.261719"/>
<use xlink:href="#glyph-0-11" x="81.510156" y="222.261719"/>
<use xlink:href="#glyph-0-8" x="87.379688" y="222.261719"/>
<use xlink:href="#glyph-0-15" x="93.249219" y="222.261719"/>
<use xlink:href="#glyph-0-7" x="99.604297" y="222.261719"/>
<use xlink:href="#glyph-0-6" x="104.498438" y="222.261719"/>
<use xlink:href="#glyph-0-26" x="109.873828" y="222.261719"/>
<use xlink:href="#glyph-0-6" x="116.71875" y="222.261719"/>
</g>
<g fill="rgb(30.196078%, 30.196078%, 30.196078%)" fill-opacity="1">
<use xlink:href="#glyph-0-8" x="27.214844" y="208.960938"/>
<use xlink:href="#glyph-0-21" x="33.084375" y="208.960938"/>
<use xlink:href="#glyph-0-21" x="37.978516" y="208.960938"/>
<use xlink:href="#glyph-0-10" x="42.872656" y="208.960938"/>
<use xlink:href="#glyph-0-22" x="48.742188" y="208.960938"/>
<use xlink:href="#glyph-0-23" x="54.611719" y="208.960938"/>
<use xlink:href="#glyph-0-7" x="60.48125" y="208.960938"/>
<use xlink:href="#glyph-0-10" x="65.375391" y="208.960938"/>
<use xlink:href="#glyph-0-14" x="71.244922" y="208.960938"/>
<use xlink:href="#glyph-0-24" x="76.620312" y="208.960938"/>
<use xlink:href="#glyph-0-7" x="82.975391" y="208.960938"/>
<use xlink:href="#glyph-0-10" x="87.869531" y="208.960938"/>
<use xlink:href="#glyph-0-19" x="93.739063" y="208.960938"/>
<use xlink:href="#glyph-0-7" x="102.044922" y="208.960938"/>
<use xlink:href="#glyph-0-1" x="106.939063" y="208.960938"/>
<use xlink:href="#glyph-0-12" x="113.294141" y="208.960938"/>
<use xlink:href="#glyph-0-20" x="119.649219" y="208.960938"/>
</g>
<g fill="rgb(30.196078%, 30.196078%, 30.196078%)" fill-opacity="1">
<use xlink:href="#glyph-0-8" x="22.328125" y="195.660156"/>
<use xlink:href="#glyph-0-21" x="28.197656" y="195.660156"/>
<use xlink:href="#glyph-0-21" x="33.091797" y="195.660156"/>
<use xlink:href="#glyph-0-10" x="37.985937" y="195.660156"/>
<use xlink:href="#glyph-0-22" x="43.855469" y="195.660156"/>
<use xlink:href="#glyph-0-23" x="49.725" y="195.660156"/>
<use xlink:href="#glyph-0-7" x="55.594531" y="195.660156"/>
<use xlink:href="#glyph-0-10" x="60.488672" y="195.660156"/>
<use xlink:href="#glyph-0-14" x="66.358203" y="195.660156"/>
<use xlink:href="#glyph-0-24" x="71.733594" y="195.660156"/>
<use xlink:href="#glyph-0-7" x="78.088672" y="195.660156"/>
<use xlink:href="#glyph-0-21" x="82.982813" y="195.660156"/>
<use xlink:href="#glyph-0-19" x="87.876953" y="195.660156"/>
<use xlink:href="#glyph-0-7" x="96.182813" y="195.660156"/>
<use xlink:href="#glyph-0-1" x="101.076953" y="195.660156"/>
<use xlink:href="#glyph-0-19" x="107.432031" y="195.660156"/>
<use xlink:href="#glyph-0-12" x="115.737891" y="195.660156"/>
</g>
<g fill="rgb(30.196078%, 30.196078%, 30.196078%)" fill-opacity="1">
<use xlink:href="#glyph-0-27" x="117.199219" y="182.359375"/>
</g>
<g fill="rgb(30.196078%, 30.196078%, 30.196078%)" fill-opacity="1">
<use xlink:href="#glyph-0-11" x="99.109375" y="169.054688"/>
<use xlink:href="#glyph-0-13" x="104.978906" y="169.054688"/>
<use xlink:href="#glyph-0-6" x="110.848437" y="169.054688"/>
<use xlink:href="#glyph-0-11" x="116.223828" y="169.054688"/>
</g>
<g fill="rgb(30.196078%, 30.196078%, 30.196078%)" fill-opacity="1">
<use xlink:href="#glyph-0-8" x="43.34375" y="155.753906"/>
<use xlink:href="#glyph-0-21" x="49.213281" y="155.753906"/>
<use xlink:href="#glyph-0-21" x="54.107422" y="155.753906"/>
<use xlink:href="#glyph-0-10" x="59.001562" y="155.753906"/>
<use xlink:href="#glyph-0-22" x="64.871094" y="155.753906"/>
<use xlink:href="#glyph-0-23" x="70.740625" y="155.753906"/>
<use xlink:href="#glyph-0-7" x="76.610156" y="155.753906"/>
<use xlink:href="#glyph-0-10" x="81.504297" y="155.753906"/>
<use xlink:href="#glyph-0-14" x="87.373828" y="155.753906"/>
<use xlink:href="#glyph-0-24" x="92.749219" y="155.753906"/>
<use xlink:href="#glyph-0-7" x="99.104297" y="155.753906"/>
<use xlink:href="#glyph-0-16" x="103.998437" y="155.753906"/>
<use xlink:href="#glyph-0-3" x="110.353516" y="155.753906"/>
<use xlink:href="#glyph-0-8" x="116.223047" y="155.753906"/>
</g>
<g fill="rgb(30.196078%, 30.196078%, 30.196078%)" fill-opacity="1">
<use xlink:href="#glyph-0-14" x="63.414062" y="142.453125"/>
<use xlink:href="#glyph-0-15" x="68.789453" y="142.453125"/>
<use xlink:href="#glyph-0-26" x="75.144531" y="142.453125"/>
<use xlink:href="#glyph-0-10" x="81.989453" y="142.453125"/>
<use xlink:href="#glyph-0-6" x="87.858984" y="142.453125"/>
<use xlink:href="#glyph-0-7" x="93.234375" y="142.453125"/>
<use xlink:href="#glyph-0-1" x="98.128516" y="142.453125"/>
<use xlink:href="#glyph-0-8" x="104.483594" y="142.453125"/>
<use xlink:href="#glyph-0-23" x="110.353125" y="142.453125"/>
<use xlink:href="#glyph-0-10" x="116.222656" y="142.453125"/>
</g>
<g fill="rgb(30.196078%, 30.196078%, 30.196078%)" fill-opacity="1">
<use xlink:href="#glyph-0-11" x="80.046875" y="129.152344"/>
<use xlink:href="#glyph-0-15" x="85.916406" y="129.152344"/>
<use xlink:href="#glyph-0-13" x="92.271484" y="129.152344"/>
<use xlink:href="#glyph-0-24" x="98.141016" y="129.152344"/>
<use xlink:href="#glyph-0-6" x="104.496094" y="129.152344"/>
<use xlink:href="#glyph-0-26" x="109.871484" y="129.152344"/>
<use xlink:href="#glyph-0-6" x="116.716406" y="129.152344"/>
</g>
<g fill="rgb(30.196078%, 30.196078%, 30.196078%)" fill-opacity="1">
<use xlink:href="#glyph-0-0" x="70.277344" y="115.847656"/>
<use xlink:href="#glyph-0-19" x="77.122266" y="115.847656"/>
<use xlink:href="#glyph-0-13" x="85.428125" y="115.847656"/>
<use xlink:href="#glyph-0-6" x="91.297656" y="115.847656"/>
<use xlink:href="#glyph-0-15" x="96.673047" y="115.847656"/>
<use xlink:href="#glyph-0-26" x="103.028125" y="115.847656"/>
<use xlink:href="#glyph-0-26" x="109.873047" y="115.847656"/>
<use xlink:href="#glyph-0-6" x="116.717969" y="115.847656"/>
</g>
<g fill="rgb(30.196078%, 30.196078%, 30.196078%)" fill-opacity="1">
<use xlink:href="#glyph-0-0" x="77.609375" y="102.546875"/>
<use xlink:href="#glyph-0-19" x="84.454297" y="102.546875"/>
<use xlink:href="#glyph-0-13" x="92.760156" y="102.546875"/>
<use xlink:href="#glyph-0-6" x="98.629687" y="102.546875"/>
<use xlink:href="#glyph-0-6" x="104.005078" y="102.546875"/>
<use xlink:href="#glyph-0-26" x="109.380469" y="102.546875"/>
<use xlink:href="#glyph-0-11" x="116.225391" y="102.546875"/>
</g>
<g fill="rgb(30.196078%, 30.196078%, 30.196078%)" fill-opacity="1">
<use xlink:href="#glyph-0-11" x="94.214844" y="89.246094"/>
<use xlink:href="#glyph-0-7" x="100.084375" y="89.246094"/>
<use xlink:href="#glyph-0-13" x="104.978516" y="89.246094"/>
<use xlink:href="#glyph-0-6" x="110.848047" y="89.246094"/>
<use xlink:href="#glyph-0-11" x="116.223437" y="89.246094"/>
</g>
<g fill="rgb(30.196078%, 30.196078%, 30.196078%)" fill-opacity="1">
<use xlink:href="#glyph-0-19" x="95.695312" y="75.945312"/>
<use xlink:href="#glyph-0-10" x="104.001172" y="75.945312"/>
<use xlink:href="#glyph-0-4" x="109.870703" y="75.945312"/>
<use xlink:href="#glyph-0-5" x="114.764844" y="75.945312"/>
</g>
<g fill="rgb(30.196078%, 30.196078%, 30.196078%)" fill-opacity="1">
<use xlink:href="#glyph-0-15" x="97.160156" y="62.640625"/>
<use xlink:href="#glyph-0-17" x="103.515234" y="62.640625"/>
<use xlink:href="#glyph-0-4" x="109.870313" y="62.640625"/>
<use xlink:href="#glyph-0-5" x="114.764453" y="62.640625"/>
</g>
<g fill="rgb(30.196078%, 30.196078%, 30.196078%)" fill-opacity="1">
<use xlink:href="#glyph-0-6" x="68.304688" y="49.339844"/>
<use xlink:href="#glyph-0-4" x="73.680078" y="49.339844"/>
<use xlink:href="#glyph-0-5" x="78.574219" y="49.339844"/>
<use xlink:href="#glyph-0-7" x="85.904687" y="49.339844"/>
<use xlink:href="#glyph-0-15" x="90.798828" y="49.339844"/>
<use xlink:href="#glyph-0-8" x="97.153906" y="49.339844"/>
<use xlink:href="#glyph-0-12" x="103.023438" y="49.339844"/>
<use xlink:href="#glyph-0-0" x="109.378516" y="49.339844"/>
<use xlink:href="#glyph-0-13" x="116.223438" y="49.339844"/>
</g>
<g fill="rgb(30.196078%, 30.196078%, 30.196078%)" fill-opacity="1">
<use xlink:href="#glyph-0-11" x="74.660156" y="36.039062"/>
<use xlink:href="#glyph-0-8" x="80.529687" y="36.039062"/>
<use xlink:href="#glyph-0-15" x="86.399219" y="36.039062"/>
<use xlink:href="#glyph-0-7" x="92.754297" y="36.039062"/>
<use xlink:href="#glyph-0-6" x="97.648438" y="36.039062"/>
<use xlink:href="#glyph-0-13" x="103.023828" y="36.039062"/>
<use xlink:href="#glyph-0-5" x="108.893359" y="36.039062"/>
<use xlink:href="#glyph-0-11" x="116.223828" y="36.039062"/>
</g>
<path fill="none" stroke-width="1.066978" stroke-linecap="butt" stroke-linejoin="round" stroke="rgb(20%, 20%, 20%)" stroke-opacity="1" stroke-miterlimit="10" d="M 124.285156 444.746094 L 127.023438 444.746094 "/>
<path fill="none" stroke-width="1.066978" stroke-linecap="butt" stroke-linejoin="round" stroke="rgb(20%, 20%, 20%)" stroke-opacity="1" stroke-miterlimit="10" d="M 124.285156 431.441406 L 127.023438 431.441406 "/>
<path fill="none" stroke-width="1.066978" stroke-linecap="butt" stroke-linejoin="round" stroke="rgb(20%, 20%, 20%)" stroke-opacity="1" stroke-miterlimit="10" d="M 124.285156 418.140625 L 127.023438 418.140625 "/>
<path fill="none" stroke-width="1.066978" stroke-linecap="butt" stroke-linejoin="round" stroke="rgb(20%, 20%, 20%)" stroke-opacity="1" stroke-miterlimit="10" d="M 124.285156 404.839844 L 127.023438 404.839844 "/>
<path fill="none" stroke-width="1.066978" stroke-linecap="butt" stroke-linejoin="round" stroke="rgb(20%, 20%, 20%)" stroke-opacity="1" stroke-miterlimit="10" d="M 124.285156 391.535156 L 127.023438 391.535156 "/>
<path fill="none" stroke-width="1.066978" stroke-linecap="butt" stroke-linejoin="round" stroke="rgb(20%, 20%, 20%)" stroke-opacity="1" stroke-miterlimit="10" d="M 124.285156 378.234375 L 127.023438 378.234375 "/>
<path fill="none" stroke-width="1.066978" stroke-linecap="butt" stroke-linejoin="round" stroke="rgb(20%, 20%, 20%)" stroke-opacity="1" stroke-miterlimit="10" d="M 124.285156 364.933594 L 127.023438 364.933594 "/>
<path fill="none" stroke-width="1.066978" stroke-linecap="butt" stroke-linejoin="round" stroke="rgb(20%, 20%, 20%)" stroke-opacity="1" stroke-miterlimit="10" d="M 124.285156 351.632812 L 127.023438 351.632812 "/>
<path fill="none" stroke-width="1.066978" stroke-linecap="butt" stroke-linejoin="round" stroke="rgb(20%, 20%, 20%)" stroke-opacity="1" stroke-miterlimit="10" d="M 124.285156 338.328125 L 127.023438 338.328125 "/>
<path fill="none" stroke-width="1.066978" stroke-linecap="butt" stroke-linejoin="round" stroke="rgb(20%, 20%, 20%)" stroke-opacity="1" stroke-miterlimit="10" d="M 124.285156 325.027344 L 127.023438 325.027344 "/>
<path fill="none" stroke-width="1.066978" stroke-linecap="butt" stroke-linejoin="round" stroke="rgb(20%, 20%, 20%)" stroke-opacity="1" stroke-miterlimit="10" d="M 124.285156 311.726562 L 127.023438 311.726562 "/>
<path fill="none" stroke-width="1.066978" stroke-linecap="butt" stroke-linejoin="round" stroke="rgb(20%, 20%, 20%)" stroke-opacity="1" stroke-miterlimit="10" d="M 124.285156 298.425781 L 127.023438 298.425781 "/>
<path fill="none" stroke-width="1.066978" stroke-linecap="butt" stroke-linejoin="round" stroke="rgb(20%, 20%, 20%)" stroke-opacity="1" stroke-miterlimit="10" d="M 124.285156 285.121094 L 127.023438 285.121094 "/>
<path fill="none" stroke-width="1.066978" stroke-linecap="butt" stroke-linejoin="round" stroke="rgb(20%, 20%, 20%)" stroke-opacity="1" stroke-miterlimit="10" d="M 124.285156 271.820312 L 127.023438 271.820312 "/>
<path fill="none" stroke-width="1.066978" stroke-linecap="butt" stroke-linejoin="round" stroke="rgb(20%, 20%, 20%)" stroke-opacity="1" stroke-miterlimit="10" d="M 124.285156 258.519531 L 127.023438 258.519531 "/>
<path fill="none" stroke-width="1.066978" stroke-linecap="butt" stroke-linejoin="round" stroke="rgb(20%, 20%, 20%)" stroke-opacity="1" stroke-miterlimit="10" d="M 124.285156 245.21875 L 127.023438 245.21875 "/>
<path fill="none" stroke-width="1.066978" stroke-linecap="butt" stroke-linejoin="round" stroke="rgb(20%, 20%, 20%)" stroke-opacity="1" stroke-miterlimit="10" d="M 124.285156 231.914062 L 127.023438 231.914062 "/>
<path fill="none" stroke-width="1.066978" stroke-linecap="butt" stroke-linejoin="round" stroke="rgb(20%, 20%, 20%)" stroke-opacity="1" stroke-miterlimit="10" d="M 124.285156 218.613281 L 127.023438 218.613281 "/>
<path fill="none" stroke-width="1.066978" stroke-linecap="butt" stroke-linejoin="round" stroke="rgb(20%, 20%, 20%)" stroke-opacity="1" stroke-miterlimit="10" d="M 124.285156 205.3125 L 127.023438 205.3125 "/>
<path fill="none" stroke-width="1.066978" stroke-linecap="butt" stroke-linejoin="round" stroke="rgb(20%, 20%, 20%)" stroke-opacity="1" stroke-miterlimit="10" d="M 124.285156 192.011719 L 127.023438 192.011719 "/>
<path fill="none" stroke-width="1.066978" stroke-linecap="butt" stroke-linejoin="round" stroke="rgb(20%, 20%, 20%)" stroke-opacity="1" stroke-miterlimit="10" d="M 124.285156 178.707031 L 127.023438 178.707031 "/>
<path fill="none" stroke-width="1.066978" stroke-linecap="butt" stroke-linejoin="round" stroke="rgb(20%, 20%, 20%)" stroke-opacity="1" stroke-miterlimit="10" d="M 124.285156 165.40625 L 127.023438 165.40625 "/>
<path fill="none" stroke-width="1.066978" stroke-linecap="butt" stroke-linejoin="round" stroke="rgb(20%, 20%, 20%)" stroke-opacity="1" stroke-miterlimit="10" d="M 124.285156 152.105469 L 127.023438 152.105469 "/>
<path fill="none" stroke-width="1.066978" stroke-linecap="butt" stroke-linejoin="round" stroke="rgb(20%, 20%, 20%)" stroke-opacity="1" stroke-miterlimit="10" d="M 124.285156 138.804688 L 127.023438 138.804688 "/>
<path fill="none" stroke-width="1.066978" stroke-linecap="butt" stroke-linejoin="round" stroke="rgb(20%, 20%, 20%)" stroke-opacity="1" stroke-miterlimit="10" d="M 124.285156 125.5 L 127.023438 125.5 "/>
<path fill="none" stroke-width="1.066978" stroke-linecap="butt" stroke-linejoin="round" stroke="rgb(20%, 20%, 20%)" stroke-opacity="1" stroke-miterlimit="10" d="M 124.285156 112.199219 L 127.023438 112.199219 "/>
<path fill="none" stroke-width="1.066978" stroke-linecap="butt" stroke-linejoin="round" stroke="rgb(20%, 20%, 20%)" stroke-opacity="1" stroke-miterlimit="10" d="M 124.285156 98.898438 L 127.023438 98.898438 "/>
<path fill="none" stroke-width="1.066978" stroke-linecap="butt" stroke-linejoin="round" stroke="rgb(20%, 20%, 20%)" stroke-opacity="1" stroke-miterlimit="10" d="M 124.285156 85.597656 L 127.023438 85.597656 "/>
<path fill="none" stroke-width="1.066978" stroke-linecap="butt" stroke-linejoin="round" stroke="rgb(20%, 20%, 20%)" stroke-opacity="1" stroke-miterlimit="10" d="M 124.285156 72.292969 L 127.023438 72.292969 "/>
<path fill="none" stroke-width="1.066978" stroke-linecap="butt" stroke-linejoin="round" stroke="rgb(20%, 20%, 20%)" stroke-opacity="1" stroke-miterlimit="10" d="M 124.285156 58.992188 L 127.023438 58.992188 "/>
<path fill="none" stroke-width="1.066978" stroke-linecap="butt" stroke-linejoin="round" stroke="rgb(20%, 20%, 20%)" stroke-opacity="1" stroke-miterlimit="10" d="M 124.285156 45.691406 L 127.023438 45.691406 "/>
<path fill="none" stroke-width="1.066978" stroke-linecap="butt" stroke-linejoin="round" stroke="rgb(20%, 20%, 20%)" stroke-opacity="1" stroke-miterlimit="10" d="M 124.285156 32.390625 L 127.023438 32.390625 "/>
<path fill="none" stroke-width="1.066978" stroke-linecap="butt" stroke-linejoin="round" stroke="rgb(20%, 20%, 20%)" stroke-opacity="1" stroke-miterlimit="10" d="M 150.910156 455.464844 L 150.910156 452.726562 "/>
<path fill="none" stroke-width="1.066978" stroke-linecap="butt" stroke-linejoin="round" stroke="rgb(20%, 20%, 20%)" stroke-opacity="1" stroke-miterlimit="10" d="M 285.074219 455.464844 L 285.074219 452.726562 "/>
<path fill="none" stroke-width="1.066978" stroke-linecap="butt" stroke-linejoin="round" stroke="rgb(20%, 20%, 20%)" stroke-opacity="1" stroke-miterlimit="10" d="M 419.234375 455.464844 L 419.234375 452.726562 "/>
<path fill="none" stroke-width="1.066978" stroke-linecap="butt" stroke-linejoin="round" stroke="rgb(20%, 20%, 20%)" stroke-opacity="1" stroke-miterlimit="10" d="M 553.394531 455.464844 L 553.394531 452.726562 "/>
<g fill="rgb(30.196078%, 30.196078%, 30.196078%)" fill-opacity="1">
<use xlink:href="#glyph-0-28" x="144.792969" y="464.957031"/>
<use xlink:href="#glyph-0-29" x="149.687109" y="464.957031"/>
<use xlink:href="#glyph-0-28" x="152.132031" y="464.957031"/>
</g>
<g fill="rgb(30.196078%, 30.196078%, 30.196078%)" fill-opacity="1">
<use xlink:href="#glyph-0-28" x="278.957031" y="464.957031"/>
<use xlink:href="#glyph-0-29" x="283.851172" y="464.957031"/>
<use xlink:href="#glyph-0-18" x="286.296094" y="464.957031"/>
</g>
<g fill="rgb(30.196078%, 30.196078%, 30.196078%)" fill-opacity="1">
<use xlink:href="#glyph-0-28" x="413.117188" y="464.957031"/>
<use xlink:href="#glyph-0-29" x="418.011328" y="464.957031"/>
<use xlink:href="#glyph-0-4" x="420.45625" y="464.957031"/>
</g>
<g fill="rgb(30.196078%, 30.196078%, 30.196078%)" fill-opacity="1">
<use xlink:href="#glyph-0-28" x="547.277344" y="464.957031"/>
<use xlink:href="#glyph-0-29" x="552.171484" y="464.957031"/>
<use xlink:href="#glyph-0-30" x="554.616406" y="464.957031"/>
</g>
<g fill="rgb(0%, 0%, 0%)" fill-opacity="1">
<use xlink:href="#glyph-1-0" x="365.011719" y="478.269531"/>
<use xlink:href="#glyph-1-1" x="372.348633" y="478.269531"/>
<use xlink:href="#glyph-1-2" x="375.404785" y="478.269531"/>
<use xlink:href="#glyph-1-3" x="382.741699" y="478.269531"/>
<use xlink:href="#glyph-1-4" x="385.797852" y="478.269531"/>
<use xlink:href="#glyph-1-5" x="393.134766" y="478.269531"/>
<use xlink:href="#glyph-1-6" x="398.634766" y="478.269531"/>
<use xlink:href="#glyph-1-7" x="404.752441" y="478.269531"/>
<use xlink:href="#glyph-1-8" x="408.415527" y="478.269531"/>
</g>
<g fill="rgb(0%, 0%, 0%)" fill-opacity="1">
<use xlink:href="#glyph-2-0" x="127.023438" y="15.929688"/>
<use xlink:href="#glyph-2-1" x="135.827734" y="15.929688"/>
<use xlink:href="#glyph-2-2" x="143.168945" y="15.929688"/>
<use xlink:href="#glyph-2-3" x="151.973242" y="15.929688"/>
<use xlink:href="#glyph-2-4" x="155.640625" y="15.929688"/>
<use xlink:href="#glyph-2-5" x="164.444922" y="15.929688"/>
<use xlink:href="#glyph-2-6" x="171.786133" y="15.929688"/>
<use xlink:href="#glyph-2-7" x="176.181836" y="15.929688"/>
<use xlink:href="#glyph-2-5" x="179.114453" y="15.929688"/>
<use xlink:href="#glyph-2-8" x="186.455664" y="15.929688"/>
<use xlink:href="#glyph-2-9" x="193.796875" y="15.929688"/>
<use xlink:href="#glyph-2-10" x="196.729492" y="15.929688"/>
<use xlink:href="#glyph-2-3" x="204.070703" y="15.929688"/>
<use xlink:href="#glyph-2-11" x="207.738086" y="15.929688"/>
<use xlink:href="#glyph-2-12" x="211.405469" y="15.929688"/>
<use xlink:href="#glyph-2-13" x="222.401172" y="15.929688"/>
<use xlink:href="#glyph-2-14" x="229.742383" y="15.929688"/>
<use xlink:href="#glyph-2-6" x="237.083594" y="15.929688"/>
<use xlink:href="#glyph-2-15" x="241.479297" y="15.929688"/>
<use xlink:href="#glyph-2-5" x="245.14668" y="15.929688"/>
<use xlink:href="#glyph-2-16" x="252.487891" y="15.929688"/>
<use xlink:href="#glyph-2-17" x="259.829102" y="15.929688"/>
<use xlink:href="#glyph-2-10" x="266.429102" y="15.929688"/>
<use xlink:href="#glyph-2-3" x="273.770313" y="15.929688"/>
<use xlink:href="#glyph-2-18" x="277.437695" y="15.929688"/>
<use xlink:href="#glyph-2-4" x="281.833398" y="15.929688"/>
<use xlink:href="#glyph-2-11" x="290.637695" y="15.929688"/>
<use xlink:href="#glyph-2-0" x="294.305078" y="15.929688"/>
<use xlink:href="#glyph-2-19" x="303.109375" y="15.929688"/>
</g>
</svg>
